<?xml version="1.0" standalone="no"?>
<!DOCTYPE svg PUBLIC "-//W3C//DTD SVG 20010904//EN"
 "http://www.w3.org/TR/2001/REC-SVG-20010904/DTD/svg10.dtd">
<svg version="1.0" xmlns="http://www.w3.org/2000/svg"
 width="1089.000000pt" height="753.000000pt" viewBox="0 0 1089.000000 753.000000"
 preserveAspectRatio="xMidYMid meet">

<g transform="translate(0.000000,753.000000) scale(0.100000,-0.100000)"
fill="#000000" stroke="none">
<path d="M9040 7034 c-484 -41 -730 -94 -817 -176 -50 -47 -11 -107 94 -148
32 -12 66 -25 75 -28 15 -6 -26 -77 -248 -432 -146 -234 -271 -434 -276 -445
-34 -66 39 47 278 430 147 237 269 432 270 434 2 2 52 -6 111 -18 352 -71 990
-92 1413 -46 400 42 650 122 650 207 0 82 -230 157 -625 204 -132 15 -802 28
-925 18z m920 -28 c343 -41 538 -93 600 -160 23 -25 24 -29 9 -54 -106 -190
-1360 -271 -2039 -131 -52 11 -96 24 -98 29 -2 5 -9 7 -15 4 -18 -6 -125 32
-164 59 -159 108 145 220 722 267 175 14 827 5 985 -14z"/>
<path d="M9740 6866 c0 -8 -10 -16 -22 -18 -19 -2 -24 -10 -26 -41 -3 -31 1
-39 20 -47 16 -6 -24 -8 -122 -8 -102 1 -136 4 -116 11 24 8 27 13 24 46 -3
33 -6 36 -33 36 -29 0 -30 -2 -30 -43 0 -36 -4 -44 -22 -49 -34 -8 -52 3 -46
26 4 16 -1 23 -21 31 -32 12 -25 34 7 24 17 -5 19 -3 11 6 -16 16 -48 9 -52
-13 -2 -11 6 -20 22 -27 35 -13 34 -34 -1 -27 -26 5 -27 4 -8 -10 19 -14 19
-14 -10 -11 -16 2 -29 8 -28 15 2 7 -8 11 -24 10 -14 -1 -28 4 -30 11 -3 8 6
12 26 12 20 0 31 5 31 14 0 21 -27 38 -50 31 -30 -9 -28 -68 3 -83 21 -11 21
-12 -8 -9 -28 2 -30 5 -33 50 -2 26 -8 47 -13 47 -6 0 -9 -20 -8 -47 l3 -48
-64 -1 c-36 0 -54 2 -40 6 21 5 25 12 25 45 0 38 -2 40 -32 43 -33 3 -33 3
-33 -42 0 -53 -6 -56 -105 -52 -69 2 -163 -10 -105 -14 23 -1 23 -2 5 -10 -14
-6 -15 -9 -5 -9 9 -1 21 4 28 11 9 9 17 9 36 -2 21 -11 28 -11 41 0 13 11 20
11 40 0 19 -10 28 -10 39 -1 10 9 20 9 40 0 20 -9 29 -9 41 1 13 11 20 11 40
0 20 -11 27 -11 40 0 13 11 20 11 40 0 20 -11 27 -11 40 0 13 11 20 11 40 0
20 -11 27 -11 40 0 13 11 20 11 40 0 20 -11 27 -11 40 0 13 11 20 11 40 0 20
-11 27 -11 40 0 13 11 20 11 41 0 16 -9 28 -10 34 -4 6 6 37 7 78 3 42 -5 72
-3 80 3 9 8 20 7 37 -2 20 -11 27 -11 40 0 12 10 20 11 38 1 16 -9 31 -9 49
-2 17 6 29 6 36 -1 12 -12 42 -4 42 12 0 5 -12 10 -27 11 -27 0 -28 0 -5 10
19 7 23 15 20 46 -3 35 -6 38 -35 41 l-33 3 0 -50 c0 -49 -1 -51 -27 -51 -24
1 -25 2 -10 11 25 15 21 38 -9 49 -30 12 -22 34 9 24 17 -5 19 -3 11 6 -16 16
-48 9 -52 -13 -2 -11 6 -20 22 -27 33 -12 34 -34 1 -28 -14 3 -23 1 -22 -6 1
-6 -10 -12 -25 -14 l-28 -3 0 65 c0 37 -4 66 -10 66 -5 0 -10 -6 -10 -14z
m-645 -61 c0 -20 -6 -31 -17 -33 -15 -3 -18 4 -18 33 0 29 3 36 18 33 11 -2
17 -13 17 -33z m179 20 c4 -11 -1 -15 -19 -15 -18 0 -23 4 -19 15 4 8 12 15
19 15 7 0 15 -7 19 -15z m211 -20 c0 -23 -4 -30 -20 -30 -21 0 -31 25 -21 51
11 28 41 12 41 -21z m250 -1 c0 -19 -5 -29 -15 -29 -16 0 -25 28 -16 51 10 25
31 10 31 -22z m210 1 c0 -20 -6 -31 -17 -33 -15 -3 -18 4 -18 33 0 29 3 36 18
33 11 -2 17 -13 17 -33z m-1018 -71 c-3 -3 -12 -4 -19 -1 -8 3 -5 6 6 6 11 1
17 -2 13 -5z m80 0 c-3 -3 -12 -4 -19 -1 -8 3 -5 6 6 6 11 1 17 -2 13 -5z m80
0 c-3 -3 -12 -4 -19 -1 -8 3 -5 6 6 6 11 1 17 -2 13 -5z m80 0 c-3 -3 -12 -4
-19 -1 -8 3 -5 6 6 6 11 1 17 -2 13 -5z m80 0 c-3 -3 -12 -4 -19 -1 -8 3 -5 6
6 6 11 1 17 -2 13 -5z m80 0 c-3 -3 -12 -4 -19 -1 -8 3 -5 6 6 6 11 1 17 -2
13 -5z m80 0 c-3 -3 -12 -4 -19 -1 -8 3 -5 6 6 6 11 1 17 -2 13 -5z m80 0 c-3
-3 -12 -4 -19 -1 -8 3 -5 6 6 6 11 1 17 -2 13 -5z m80 0 c-3 -3 -12 -4 -19 -1
-8 3 -5 6 6 6 11 1 17 -2 13 -5z m150 0 c-3 -3 -12 -4 -19 -1 -8 3 -5 6 6 6
11 1 17 -2 13 -5z m80 0 c-3 -3 -12 -4 -19 -1 -8 3 -5 6 6 6 11 1 17 -2 13 -5z
m80 0 c-3 -3 -12 -4 -19 -1 -8 3 -5 6 6 6 11 1 17 -2 13 -5z m80 0 c-3 -3 -12
-4 -19 -1 -8 3 -5 6 6 6 11 1 17 -2 13 -5z"/>
<path d="M9394 6860 c-12 -12 -3 -92 11 -97 6 -2 9 18 8 48 -1 56 -4 64 -19
49z"/>
<path d="M8820 6803 c0 -24 5 -43 10 -43 6 0 10 15 10 33 0 18 5 38 11 44 9 9
7 12 -10 10 -18 -1 -21 -7 -21 -44z"/>
<path d="M8883 6843 c-7 -2 -13 -20 -13 -39 0 -28 4 -35 26 -40 14 -4 30 -2
36 4 8 8 3 11 -17 9 -15 -1 -30 4 -32 11 -3 8 6 12 26 12 32 0 41 16 19 38
-13 13 -24 14 -45 5z m41 -18 c4 -11 -1 -15 -19 -15 -18 0 -23 4 -19 15 4 8
12 15 19 15 7 0 15 -7 19 -15z"/>
<path d="M8967 6843 c-14 -14 -6 -34 18 -43 33 -13 33 -34 -1 -27 -16 3 -22 1
-16 -5 15 -15 46 -5 50 15 2 11 -6 20 -23 27 -30 11 -24 34 7 24 14 -4 18 -2
14 5 -8 12 -39 15 -49 4z"/>
<path d="M9133 6810 c2 -40 5 -45 27 -47 14 -1 18 0 8 3 -10 3 -20 15 -23 27
-12 57 -13 59 -12 17z"/>
<path d="M9527 6843 c-14 -14 -6 -34 18 -43 33 -13 33 -34 -1 -27 -16 3 -22 1
-16 -5 15 -15 46 -5 50 15 2 11 -6 20 -23 27 -30 11 -24 34 7 24 14 -4 18 -2
14 5 -8 12 -39 15 -49 4z"/>
<path d="M9780 6805 c0 -25 5 -45 10 -45 6 0 10 20 10 45 0 25 -4 45 -10 45
-5 0 -10 -20 -10 -45z"/>
<path d="M1156 6919 c-208 -20 -406 -72 -491 -130 -37 -26 -65 -67 -65 -97 0
-54 92 -115 235 -157 158 -46 253 -57 529 -62 l259 -5 389 -334 389 -334 -163
-2 -163 -3 -3 -167 c-2 -152 -4 -168 -20 -167 -9 0 -291 46 -627 102 l-609
103 169 12 c321 23 529 77 613 161 42 42 42 79 1 125 -75 86 -302 147 -614
165 -584 35 -1091 -127 -917 -292 76 -72 287 -134 517 -152 44 -3 396 -58 782
-122 l702 -116 3 -36 3 -36 618 -3 617 -2 0 215 0 215 -92 0 -93 0 265 160
c246 148 266 158 280 142 70 -81 278 -138 650 -179 231 -25 855 -25 1080 0
428 48 650 119 650 207 0 85 -201 154 -595 202 -157 19 -231 22 -585 22 -403
1 -488 -4 -740 -40 -244 -35 -423 -96 -460 -156 -13 -21 -96 -77 -291 -194
l-274 -164 -167 0 c-112 0 -168 4 -168 11 0 9 93 575 105 639 4 22 3 22 -5 5
-5 -11 -32 -163 -61 -337 l-52 -318 -171 0 -171 1 -393 337 -393 337 98 12
c220 28 405 94 450 162 31 45 29 63 -9 107 -57 64 -201 116 -416 150 -120 18
-462 26 -596 13z m599 -24 c263 -41 435 -119 435 -197 0 -36 -79 -102 -156
-130 -88 -33 -230 -63 -356 -77 -122 -14 -434 -14 -553 -1 -346 39 -559 140
-504 239 45 81 263 154 535 180 135 13 477 5 599 -14z m3705 -574 c280 -34
444 -75 534 -131 160 -102 -91 -205 -644 -262 -191 -20 -833 -17 -1030 5 -368
41 -589 101 -636 172 -15 23 -15 27 -1 49 55 83 335 151 767 186 58 5 272 7
475 5 292 -3 405 -8 535 -24z m-4309 -217 c277 -33 469 -115 469 -199 0 -104
-244 -189 -626 -217 -420 -31 -890 63 -940 188 -70 172 532 297 1097 228z
m2149 -519 l0 -205 -607 2 -608 3 -3 190 c-1 104 0 195 2 202 4 10 128 13 611
13 l605 0 0 -205z"/>
<path d="M1220 6756 c0 -8 -10 -16 -22 -18 -31 -4 -39 -65 -12 -85 16 -12 16
-13 -7 -13 -25 0 -66 20 -41 20 9 0 12 12 10 38 -3 34 -6 37 -33 37 -27 0 -30
-3 -33 -38 -3 -31 1 -39 20 -46 23 -10 23 -10 1 -10 -35 -1 -52 9 -45 27 5 15
4 15 -12 3 -15 -13 -19 -13 -27 0 -22 35 -1 71 28 47 14 -11 15 -11 11 2 -2 8
-16 15 -29 15 -21 0 -24 -5 -27 -38 -3 -31 1 -39 20 -46 22 -9 22 -10 -7 -11
-30 -2 -30 -2 -5 -10 19 -6 21 -8 6 -9 -11 -1 -16 -4 -13 -8 4 -3 18 0 32 7
20 11 27 11 40 0 13 -11 20 -11 40 0 20 11 27 11 40 0 13 -11 20 -11 40 0 18
10 28 10 38 2 8 -7 17 -9 21 -5 4 4 127 10 274 13 l267 6 -282 2 c-201 1 -284
5 -289 14 -4 7 -3 8 4 4 9 -5 12 10 12 53 0 34 -4 61 -10 61 -5 0 -10 -6 -10
-14z m-85 -61 c0 -23 -4 -30 -20 -30 -21 0 -31 25 -21 51 11 28 41 12 41 -21z
m80 -1 c0 -19 -5 -29 -15 -29 -16 0 -25 28 -16 51 10 25 31 10 31 -22z m-108
-70 c-3 -3 -12 -4 -19 -1 -8 3 -5 6 6 6 11 1 17 -2 13 -5z m80 0 c-3 -3 -12
-4 -19 -1 -8 3 -5 6 6 6 11 1 17 -2 13 -5z"/>
<path d="M1430 6710 c0 -33 4 -60 10 -60 6 0 10 27 10 60 0 33 -4 60 -10 60
-6 0 -10 -27 -10 -60z"/>
<path d="M1674 6750 c-12 -12 -3 -92 11 -97 6 -2 9 18 8 48 -1 56 -4 64 -19
49z"/>
<path d="M1354 6727 c-3 -9 -4 -28 -2 -44 2 -22 8 -28 27 -28 13 0 27 7 29 15
5 13 3 13 -12 1 -15 -13 -19 -13 -27 0 -22 35 -1 71 28 47 14 -11 16 -11 11 2
-6 20 -47 25 -54 7z"/>
<path d="M1460 6695 c0 -25 5 -45 10 -45 6 0 10 20 10 45 0 25 -4 45 -10 45
-5 0 -10 -20 -10 -45z"/>
<path d="M1513 6733 c-7 -2 -13 -20 -13 -39 0 -28 4 -35 26 -40 14 -4 30 -2
36 4 8 8 3 11 -17 9 -15 -1 -30 4 -32 11 -3 8 6 12 26 12 32 0 41 16 19 38
-13 13 -24 14 -45 5z m41 -18 c4 -11 -1 -15 -19 -15 -18 0 -23 4 -19 15 4 8
12 15 19 15 7 0 15 -7 19 -15z"/>
<path d="M1580 6696 c0 -25 5 -46 10 -46 6 0 10 18 10 39 0 22 -4 43 -10 46
-6 4 -10 -12 -10 -39z"/>
<path d="M1617 6733 c7 -5 17 -27 22 -48 l10 -40 -2 45 c-2 36 -6 45 -22 48
-13 2 -16 0 -8 -5z"/>
<path d="M1733 6733 c-7 -2 -13 -20 -13 -39 0 -28 4 -35 26 -40 14 -4 30 -2
36 4 8 8 3 11 -17 9 -15 -1 -30 4 -32 11 -3 8 6 12 26 12 32 0 41 16 19 38
-13 13 -24 14 -45 5z m41 -18 c4 -11 -1 -15 -19 -15 -18 0 -23 4 -19 15 4 8
12 15 19 15 7 0 15 -7 19 -15z"/>
<path d="M4240 6140 c0 -65 17 -83 22 -23 4 52 25 53 37 1 l10 -43 -2 45 c-2
40 -5 45 -24 44 -16 0 -23 5 -23 18 0 10 -4 18 -10 18 -6 0 -10 -27 -10 -60z"/>
<path d="M4750 6140 c0 -33 4 -60 10 -60 6 0 10 27 10 60 0 33 -4 60 -10 60
-6 0 -10 -27 -10 -60z"/>
<path d="M4444 6180 c-12 -12 -3 -92 11 -97 6 -2 9 18 8 48 -1 56 -4 64 -19
49z"/>
<path d="M4330 6125 c0 -25 5 -45 10 -45 6 0 10 20 10 45 0 25 -4 45 -10 45
-5 0 -10 -20 -10 -45z"/>
<path d="M4367 6163 c-14 -14 -6 -34 18 -43 33 -13 33 -34 -1 -27 -16 3 -22 1
-16 -5 15 -15 46 -5 50 15 2 11 -6 20 -23 27 -30 11 -24 34 7 24 14 -4 18 -2
14 5 -8 12 -39 15 -49 4z"/>
<path d="M4497 6164 c-11 -11 -8 -72 4 -79 5 -4 21 -4 35 -1 22 6 25 11 22 44
-3 31 -7 37 -28 40 -14 2 -29 0 -33 -4z m48 -39 c0 -23 -4 -30 -20 -30 -21 0
-31 25 -21 51 11 28 41 12 41 -21z"/>
<path d="M4580 6123 c0 -24 5 -43 10 -43 6 0 10 15 10 33 0 18 5 38 11 44 9 9
7 12 -10 10 -18 -1 -21 -7 -21 -44z"/>
<path d="M4630 6125 c0 -25 5 -45 10 -45 6 0 10 20 10 45 0 25 -4 45 -10 45
-5 0 -10 -20 -10 -45z"/>
<path d="M4665 6160 c-4 -7 2 -9 19 -4 16 4 26 2 26 -4 0 -6 -10 -12 -22 -14
-17 -2 -23 -10 -23 -28 0 -22 5 -25 36 -26 34 -1 35 0 31 30 -3 17 -9 37 -14
44 -13 15 -44 16 -53 2z m45 -44 c0 -8 -5 -18 -11 -22 -14 -8 -33 11 -25 25
10 16 36 13 36 -3z"/>
<path d="M4884 6157 c-3 -9 -4 -28 -2 -44 2 -22 8 -28 27 -28 13 0 27 7 29 15
5 13 3 13 -12 1 -15 -13 -19 -13 -27 0 -22 35 -1 71 28 47 14 -11 16 -11 11 2
-6 20 -47 25 -54 7z"/>
<path d="M4967 6164 c-11 -11 -8 -72 4 -79 5 -4 21 -4 35 -1 22 6 25 11 22 44
-3 31 -7 37 -28 40 -14 2 -29 0 -33 -4z m48 -39 c0 -23 -4 -30 -20 -30 -21 0
-31 25 -21 51 11 28 41 12 41 -21z"/>
<path d="M5040 6124 c0 -24 5 -44 10 -44 6 0 10 18 10 40 0 29 4 40 15 40 11
0 15 -12 16 -42 1 -24 3 -34 6 -23 2 11 6 30 9 43 8 39 32 26 37 -20 l4 -43
-1 45 -1 45 -52 1 -53 1 0 -43z"/>
<path d="M5180 6111 c0 -34 4 -61 10 -61 6 0 10 6 10 14 0 8 10 16 23 18 19 3
22 9 22 43 0 38 -2 40 -32 43 l-33 3 0 -60z m55 14 c0 -20 -6 -31 -17 -33 -15
-3 -18 4 -18 33 0 29 3 36 18 33 11 -2 17 -13 17 -33z"/>
<path d="M5270 6123 c0 -24 5 -43 10 -43 6 0 10 15 10 33 0 18 5 38 11 44 9 9
7 12 -10 10 -18 -1 -21 -7 -21 -44z"/>
<path d="M5325 6160 c-4 -7 2 -9 19 -4 16 4 26 2 26 -4 0 -6 -10 -12 -22 -14
-17 -2 -23 -10 -23 -28 0 -22 5 -25 36 -26 34 -1 35 0 31 30 -3 17 -9 37 -14
44 -13 15 -44 16 -53 2z m45 -44 c0 -20 -19 -31 -32 -18 -6 6 -7 15 -4 21 10
16 36 13 36 -3z"/>
<path d="M5417 6163 c-14 -14 -6 -34 18 -43 33 -13 33 -34 -1 -27 -16 3 -22 1
-16 -5 15 -15 46 -5 50 15 2 11 -6 20 -23 27 -30 11 -24 34 7 24 14 -4 18 -2
14 5 -8 12 -39 15 -49 4z"/>
<path d="M4803 6053 c15 -2 37 -2 50 0 12 2 0 4 -28 4 -27 0 -38 -2 -22 -4z"/>
<path d="M610 5910 c0 -33 4 -60 10 -60 6 0 10 27 10 60 0 33 -4 60 -10 60 -6
0 -10 -27 -10 -60z"/>
<path d="M820 5910 c0 -33 4 -60 10 -60 6 0 10 27 10 60 0 33 -4 60 -10 60 -6
0 -10 -27 -10 -60z"/>
<path d="M484 5950 c-12 -12 -3 -92 11 -97 6 -2 9 18 8 48 -1 56 -4 64 -19 49z"/>
<path d="M1064 5950 c-12 -12 -3 -92 11 -97 6 -2 9 18 8 48 -1 56 -4 64 -19
49z"/>
<path d="M533 5933 c-7 -2 -13 -20 -13 -39 0 -28 4 -35 26 -40 14 -4 30 -2 36
4 8 8 3 11 -17 9 -15 -1 -30 4 -32 11 -3 8 6 12 26 12 32 0 41 16 19 38 -13
13 -24 14 -45 5z m41 -18 c4 -11 -1 -15 -19 -15 -18 0 -23 4 -19 15 4 8 12 15
19 15 7 0 15 -7 19 -15z"/>
<path d="M744 5927 c-3 -9 -4 -28 -2 -44 2 -22 8 -28 27 -28 13 0 27 7 29 15
5 13 3 13 -12 1 -15 -13 -19 -13 -27 0 -22 35 -1 71 28 47 14 -11 16 -11 11 2
-6 20 -47 25 -54 7z"/>
<path d="M850 5895 c0 -25 5 -45 10 -45 6 0 10 20 10 45 0 25 -4 45 -10 45 -5
0 -10 -20 -10 -45z"/>
<path d="M903 5933 c-7 -2 -13 -20 -13 -39 0 -28 4 -35 26 -40 14 -4 30 -2 36
4 8 8 3 11 -17 9 -15 -1 -30 4 -32 11 -3 8 6 12 26 12 32 0 41 16 19 38 -13
13 -24 14 -45 5z m41 -18 c4 -11 -1 -15 -19 -15 -18 0 -23 4 -19 15 4 8 12 15
19 15 7 0 15 -7 19 -15z"/>
<path d="M970 5896 c0 -25 5 -46 10 -46 6 0 10 18 10 39 0 22 -4 43 -10 46 -6
4 -10 -12 -10 -39z"/>
<path d="M1007 5933 c7 -5 17 -27 22 -48 l10 -40 -2 45 c-2 36 -6 45 -22 48
-13 2 -16 0 -8 -5z"/>
<path d="M1123 5933 c-7 -2 -13 -20 -13 -39 0 -28 4 -35 26 -40 14 -4 30 -2
36 4 8 8 3 11 -17 9 -15 -1 -30 4 -32 11 -3 8 6 12 26 12 32 0 41 16 19 38
-13 13 -24 14 -45 5z m41 -18 c4 -11 -1 -15 -19 -15 -18 0 -23 4 -19 15 4 8
12 15 19 15 7 0 15 -7 19 -15z"/>
<path d="M663 5823 c15 -2 37 -2 50 0 12 2 0 4 -28 4 -27 0 -38 -2 -22 -4z"/>
<path d="M2426 5634 c-9 -8 -16 -28 -16 -44 0 -53 60 -81 91 -43 15 18 15 18
-35 -3 -20 -8 -47 36 -40 63 7 27 29 36 54 23 27 -14 34 -12 20 5 -16 20 -54
19 -74 -1z"/>
<path d="M2530 5590 c0 -33 4 -60 10 -60 6 0 10 27 10 60 0 33 -4 60 -10 60
-6 0 -10 -27 -10 -60z"/>
<path d="M2774 5630 c-12 -12 -3 -92 11 -97 6 -2 9 18 8 48 -1 56 -4 64 -19
49z"/>
<path d="M2560 5575 c0 -25 5 -45 10 -45 6 0 10 20 10 45 0 25 -4 45 -10 45
-5 0 -10 -20 -10 -45z"/>
<path d="M2603 5613 c-7 -2 -13 -20 -13 -39 0 -28 4 -35 26 -40 14 -4 30 -2
36 4 8 8 3 11 -17 9 -15 -1 -30 4 -32 11 -3 8 6 12 26 12 32 0 41 16 19 38
-13 13 -24 14 -45 5z m41 -18 c4 -11 -1 -15 -19 -15 -18 0 -23 4 -19 15 4 8
12 15 19 15 7 0 15 -7 19 -15z"/>
<path d="M2680 5576 c0 -25 5 -46 10 -46 6 0 10 18 10 39 0 22 -4 43 -10 46
-6 4 -10 -12 -10 -39z"/>
<path d="M2717 5613 c7 -5 17 -27 22 -48 l10 -40 -2 45 c-2 36 -6 45 -22 48
-13 2 -16 0 -8 -5z"/>
<path d="M2833 5613 c-7 -2 -13 -20 -13 -39 0 -28 4 -35 26 -40 14 -4 30 -2
36 4 8 8 3 11 -17 9 -15 -1 -30 4 -32 11 -3 8 6 12 26 12 32 0 41 16 19 38
-13 13 -24 14 -45 5z m41 -18 c4 -11 -1 -15 -19 -15 -18 0 -23 4 -19 15 4 8
12 15 19 15 7 0 15 -7 19 -15z"/>
<path d="M2907 5613 c-14 -14 -6 -34 18 -43 33 -13 33 -34 -1 -27 -16 3 -22 1
-16 -5 15 -15 46 -5 50 15 2 11 -6 20 -23 27 -30 11 -24 34 7 24 14 -4 18 -2
14 5 -8 12 -39 15 -49 4z"/>
<path d="M3320 6924 c-381 -23 -705 -79 -831 -144 -69 -36 -89 -90 -48 -131
63 -63 267 -116 589 -155 183 -21 752 -30 976 -15 511 35 834 131 794 236 -32
83 -263 150 -660 190 -148 15 -676 27 -820 19z m820 -29 c371 -37 633 -110
653 -184 25 -97 -298 -188 -787 -222 -222 -15 -792 -6 -976 15 -617 72 -786
215 -380 322 142 37 426 74 675 88 153 8 657 -4 815 -19z"/>
<path d="M3070 6756 c0 -8 -10 -16 -22 -18 -19 -2 -24 -10 -26 -41 -3 -32 0
-39 17 -44 23 -6 18 -30 -7 -36 -15 -4 -15 -5 1 -6 10 0 20 6 23 14 4 8 12 15
19 15 7 0 15 -7 19 -15 3 -8 12 -15 21 -15 9 0 18 7 21 15 4 8 12 15 19 15 7
0 15 -7 19 -15 3 -8 12 -15 21 -15 9 0 18 7 21 15 4 8 12 15 19 15 7 0 15 -7
19 -15 3 -8 12 -15 21 -15 9 0 18 7 21 15 4 8 12 15 19 15 7 0 15 -7 19 -15 3
-8 12 -15 21 -15 9 0 18 7 21 15 4 8 12 15 19 15 7 0 15 -7 19 -15 3 -8 12
-15 21 -15 9 0 18 7 21 15 4 8 12 15 19 15 7 0 15 -7 19 -15 3 -8 12 -15 21
-15 9 0 18 7 21 15 4 8 12 15 19 15 7 0 15 -7 19 -15 3 -8 12 -15 21 -15 9 0
18 7 21 15 4 8 11 15 18 15 8 0 10 14 6 47 -4 38 -9 48 -25 51 -13 2 -16 0 -8
-5 6 -5 15 -21 18 -36 13 -48 -32 -105 -49 -62 -3 8 -1 15 4 15 13 0 13 77 0
85 -6 4 -10 -12 -10 -39 0 -35 -4 -46 -15 -46 -9 0 -18 -7 -21 -15 -8 -19 -30
-20 -37 -1 -4 9 4 16 24 20 28 5 30 9 27 43 -3 35 -6 38 -33 38 -29 0 -30 -2
-30 -43 0 -23 -3 -42 -7 -42 -5 0 -8 20 -8 45 0 25 -5 45 -11 45 -6 0 -10 -19
-9 -47 2 -68 2 -73 -14 -73 -17 0 -29 27 -16 35 6 4 10 11 10 17 0 6 -6 5 -16
-3 -13 -10 -17 -10 -25 2 -22 35 -1 71 28 47 14 -11 15 -11 11 2 -2 8 -16 15
-29 15 -22 0 -24 -4 -25 -45 -2 -68 -3 -70 -18 -70 -18 0 -27 25 -19 48 6 15
5 15 -11 3 -15 -13 -19 -13 -27 0 -22 35 -1 71 28 47 14 -11 15 -11 11 2 -2 8
-16 15 -29 15 -20 0 -25 -6 -27 -34 -2 -18 1 -38 6 -43 13 -13 4 -38 -13 -38
-18 0 -26 25 -13 38 8 8 3 11 -17 9 -15 -1 -30 4 -32 11 -3 8 6 12 26 12 34 0
41 19 16 40 -25 21 -55 3 -55 -35 0 -18 5 -35 11 -37 13 -4 1 -38 -13 -38 -31
0 -51 83 -27 107 9 9 7 12 -10 10 -18 -1 -21 -7 -21 -43 0 -51 -8 -74 -25 -74
-19 0 -25 24 -25 91 0 33 -4 59 -10 59 -5 0 -10 -6 -10 -14z m-5 -62 c0 -19
-5 -29 -15 -29 -16 0 -25 28 -16 51 10 25 31 10 31 -22z m189 21 c4 -11 -1
-15 -19 -15 -18 0 -23 4 -19 15 4 8 12 15 19 15 7 0 15 -7 19 -15z m281 -20
c0 -23 -4 -30 -20 -30 -21 0 -31 25 -21 51 11 28 41 12 41 -21z"/>
<path d="M3830 6710 c0 -33 4 -60 10 -60 6 0 10 27 10 60 0 33 -4 60 -10 60
-6 0 -10 -27 -10 -60z"/>
<path d="M4074 6750 c-12 -12 -3 -92 11 -97 6 -2 9 18 8 48 -1 56 -4 64 -19
49z"/>
<path d="M3110 6695 c0 -25 5 -45 10 -45 6 0 10 20 10 45 0 25 -4 45 -10 45
-5 0 -10 -20 -10 -45z"/>
<path d="M3754 6727 c-3 -9 -4 -28 -2 -44 2 -22 8 -28 27 -28 13 0 27 7 29 15
5 13 3 13 -12 1 -15 -13 -19 -13 -27 0 -22 35 -1 71 28 47 14 -11 16 -11 11 2
-6 20 -47 25 -54 7z"/>
<path d="M3860 6695 c0 -25 5 -45 10 -45 6 0 10 20 10 45 0 25 -4 45 -10 45
-5 0 -10 -20 -10 -45z"/>
<path d="M3913 6733 c-7 -2 -13 -20 -13 -39 0 -28 4 -35 26 -40 14 -4 30 -2
36 4 8 8 3 11 -17 9 -15 -1 -30 4 -32 11 -3 8 6 12 26 12 32 0 41 16 19 38
-13 13 -24 14 -45 5z m41 -18 c4 -11 -1 -15 -19 -15 -18 0 -23 4 -19 15 4 8
12 15 19 15 7 0 15 -7 19 -15z"/>
<path d="M3980 6696 c0 -25 5 -46 10 -46 6 0 10 18 10 39 0 22 -4 43 -10 46
-6 4 -10 -12 -10 -39z"/>
<path d="M4017 6733 c7 -5 17 -27 22 -48 l10 -40 -2 45 c-2 36 -6 45 -22 48
-13 2 -16 0 -8 -5z"/>
<path d="M4133 6733 c-7 -2 -13 -20 -13 -39 0 -28 4 -35 26 -40 14 -4 30 -2
36 4 8 8 3 11 -17 9 -15 -1 -30 4 -32 11 -3 8 6 12 26 12 32 0 41 16 19 38
-13 13 -24 14 -45 5z m41 -18 c4 -11 -1 -15 -19 -15 -18 0 -23 4 -19 15 4 8
12 15 19 15 7 0 15 -7 19 -15z"/>
<path d="M3673 6623 c15 -2 37 -2 50 0 12 2 0 4 -28 4 -27 0 -38 -2 -22 -4z"/>
<path d="M6842 6809 c-294 -14 -576 -64 -699 -124 -52 -26 -103 -75 -103 -100
0 -27 56 -79 116 -106 171 -78 494 -122 896 -123 l238 -1 115 -285 c64 -157
114 -274 111 -260 -3 14 -52 142 -110 285 l-104 260 126 12 c575 54 820 195
558 319 -133 63 -388 107 -721 124 -205 10 -198 11 -423 -1z m598 -20 c383
-33 640 -116 640 -206 0 -99 -315 -185 -780 -214 -481 -30 -1048 42 -1198 151
-51 37 -60 64 -35 99 103 138 780 222 1373 170z"/>
<path d="M6560 6589 l0 -60 33 3 c30 3 32 5 32 43 0 34 -3 40 -22 43 -13 2
-23 10 -23 18 0 8 -4 14 -10 14 -6 0 -10 -27 -10 -61z m55 -15 c0 -19 -6 -30
-17 -32 -14 -3 -18 3 -18 26 0 16 3 32 7 36 14 13 28 -1 28 -30z"/>
<path d="M6880 6590 c0 -33 4 -60 10 -60 6 0 10 27 10 60 0 33 -4 60 -10 60
-6 0 -10 -27 -10 -60z"/>
<path d="M7350 6636 c0 -8 -10 -16 -22 -18 -19 -2 -24 -10 -26 -41 -3 -31 1
-39 20 -46 15 -6 -119 -11 -377 -12 l-400 -3 370 -6 c204 -4 378 -10 388 -14
10 -5 23 -3 32 4 13 11 20 10 40 0 20 -11 27 -11 40 0 13 11 20 11 41 0 18
-10 27 -11 35 -3 8 8 20 8 37 2 28 -11 52 -6 52 11 0 5 -12 10 -27 11 l-28 1
25 7 c21 6 25 13 25 46 0 38 -2 40 -32 43 -31 3 -32 3 -35 -45 -3 -45 -5 -48
-33 -50 -27 -2 -28 -2 -7 7 30 13 28 38 -4 50 -30 12 -22 34 9 24 17 -5 19 -3
11 6 -16 16 -48 9 -52 -13 -2 -11 6 -20 22 -27 33 -12 34 -34 1 -28 -13 3 -22
2 -20 -2 6 -9 -19 -20 -46 -20 -17 0 -19 8 -19 65 0 37 -4 65 -10 65 -5 0 -10
-6 -10 -14z m-5 -62 c0 -19 -5 -29 -15 -29 -16 0 -25 28 -16 51 10 25 31 10
31 -22z m220 1 c0 -20 -6 -31 -17 -33 -15 -3 -18 4 -18 33 0 29 3 36 18 33 11
-2 17 -13 17 -33z m-238 -71 c-3 -3 -12 -4 -19 -1 -8 3 -5 6 6 6 11 1 17 -2
13 -5z m80 0 c-3 -3 -12 -4 -19 -1 -8 3 -5 6 6 6 11 1 17 -2 13 -5z m80 0 c-3
-3 -12 -4 -19 -1 -8 3 -5 6 6 6 11 1 17 -2 13 -5z m80 0 c-3 -3 -12 -4 -19 -1
-8 3 -5 6 6 6 11 1 17 -2 13 -5z"/>
<path d="M7004 6630 c-12 -12 -3 -92 11 -97 6 -2 9 18 8 48 -1 56 -4 64 -19
49z"/>
<path d="M6650 6575 c0 -25 5 -45 10 -45 6 0 10 20 10 45 0 25 -4 45 -10 45
-5 0 -10 -20 -10 -45z"/>
<path d="M6684 6607 c-3 -9 -4 -28 -2 -44 2 -22 8 -28 27 -28 13 0 27 7 29 15
5 13 3 13 -12 1 -15 -13 -19 -13 -27 0 -22 35 -1 71 28 47 14 -11 16 -11 11 2
-6 20 -47 25 -54 7z"/>
<path d="M6760 6575 c0 -25 5 -45 10 -45 6 0 10 20 10 45 0 25 -4 45 -10 45
-5 0 -10 -20 -10 -45z"/>
<path d="M6804 6607 c-3 -9 -4 -28 -2 -44 2 -22 8 -28 27 -28 13 0 27 7 29 15
5 13 3 13 -12 1 -15 -13 -19 -13 -27 0 -22 35 -1 71 28 47 14 -11 16 -11 11 2
-6 20 -47 25 -54 7z"/>
<path d="M6923 6613 c-7 -2 -13 -20 -13 -39 0 -28 4 -35 26 -40 14 -4 30 -2
36 4 8 8 3 11 -17 9 -15 -1 -30 4 -32 11 -3 8 6 12 26 12 32 0 41 16 19 38
-13 13 -24 14 -45 5z m41 -18 c4 -11 -1 -15 -19 -15 -18 0 -23 4 -19 15 4 8
12 15 19 15 7 0 15 -7 19 -15z"/>
<path d="M7055 6610 c-4 -7 2 -9 19 -4 16 4 26 2 26 -4 0 -6 -10 -12 -22 -14
-17 -2 -23 -10 -23 -28 0 -24 2 -25 65 -25 54 0 65 3 68 17 2 12 -6 21 -23 28
-31 12 -23 34 8 24 17 -5 19 -3 11 6 -16 16 -48 9 -52 -13 -2 -11 6 -20 22
-27 35 -13 33 -31 -4 -28 -25 2 -30 7 -30 28 0 14 -5 31 -12 38 -15 15 -45 16
-53 2z m45 -44 c0 -20 -19 -31 -32 -18 -6 6 -7 15 -4 21 10 16 36 13 36 -3z"/>
<path d="M7390 6575 c0 -25 5 -45 10 -45 6 0 10 20 10 45 0 25 -4 45 -10 45
-5 0 -10 -20 -10 -45z"/>
<path d="M9740 6349 c-283 -34 -470 -103 -510 -185 -14 -29 -47 -45 -408 -199
-215 -93 -390 -170 -388 -172 2 -3 179 70 392 162 227 97 390 162 392 155 18
-54 122 -115 257 -149 179 -45 269 -55 535 -55 278 -1 402 12 566 59 309 90
317 232 19 324 -149 47 -285 63 -540 66 -132 2 -274 -1 -315 -6z m670 -27
c125 -23 234 -54 291 -83 212 -107 86 -235 -297 -301 -175 -30 -579 -33 -749
-4 -267 44 -425 118 -425 199 0 87 214 173 511 206 147 17 537 6 669 -17z"/>
<path d="M9645 6160 c-4 -7 2 -9 19 -4 16 4 26 2 26 -4 0 -6 -10 -12 -22 -14
-17 -2 -23 -10 -23 -28 0 -22 5 -25 36 -26 34 -1 35 0 31 30 -3 17 -9 37 -14
44 -13 15 -44 16 -53 2z m45 -44 c0 -20 -19 -31 -32 -18 -6 6 -7 15 -4 21 10
16 36 13 36 -3z"/>
<path d="M9734 6157 c-3 -9 -4 -28 -2 -44 2 -22 8 -28 27 -28 13 0 27 7 29 15
5 13 3 13 -12 1 -15 -13 -19 -13 -27 0 -22 35 -1 71 28 47 14 -11 16 -11 11 2
-6 20 -47 25 -54 7z"/>
<path d="M9814 6157 c-3 -9 -4 -28 -2 -44 2 -22 8 -28 27 -28 13 0 27 7 29 15
5 13 3 13 -12 1 -15 -13 -19 -13 -27 0 -22 35 -1 71 28 47 14 -11 16 -11 11 2
-6 20 -47 25 -54 7z"/>
<path d="M9903 6163 c-7 -2 -13 -20 -13 -39 0 -28 4 -35 26 -40 14 -4 30 -2
36 4 8 8 3 11 -17 9 -15 -1 -30 4 -32 11 -3 8 6 12 26 12 32 0 41 16 19 38
-13 13 -24 14 -45 5z m41 -18 c4 -11 -1 -15 -19 -15 -18 0 -23 4 -19 15 4 8
12 15 19 15 7 0 15 -7 19 -15z"/>
<path d="M9987 6163 c-14 -14 -6 -34 18 -43 33 -13 33 -34 -1 -27 -16 3 -22 1
-16 -5 15 -15 46 -5 50 15 2 11 -6 20 -23 27 -30 11 -24 34 7 24 14 -4 18 -2
14 5 -8 12 -39 15 -49 4z"/>
<path d="M10067 6164 c-11 -11 -8 -72 4 -79 5 -4 21 -4 35 -1 22 6 25 11 22
44 -3 31 -7 37 -28 40 -14 2 -29 0 -33 -4z m48 -39 c0 -23 -4 -30 -20 -30 -21
0 -31 25 -21 51 11 28 41 12 41 -21z"/>
<path d="M10150 6123 c0 -24 5 -43 10 -43 6 0 10 15 10 33 0 18 5 38 11 44 9
9 7 12 -10 10 -18 -1 -21 -7 -21 -44z"/>
<path d="M10200 6125 c0 -25 5 -45 10 -45 6 0 10 20 10 45 0 25 -4 45 -10 45
-5 0 -10 -20 -10 -45z"/>
<path d="M10247 6164 c-11 -11 -8 -72 4 -79 5 -4 21 -4 35 -1 22 6 25 11 22
44 -3 31 -7 37 -28 40 -14 2 -29 0 -33 -4z m48 -39 c0 -23 -4 -30 -20 -30 -21
0 -31 25 -21 51 11 28 41 12 41 -21z"/>
<path d="M10327 6163 c-14 -14 -6 -34 18 -43 33 -13 33 -34 -1 -27 -16 3 -22
1 -16 -5 15 -15 46 -5 50 15 2 11 -6 20 -23 27 -30 11 -24 34 7 24 14 -4 18
-2 14 5 -8 12 -39 15 -49 4z"/>
<path d="M9818 6063 c105 -2 279 -2 385 0 105 1 19 2 -193 2 -212 0 -298 -1
-192 -2z"/>
<path d="M6680 5545 l0 -215 187 0 188 0 -611 -611 -612 -612 -201 107 c-111
58 -203 106 -206 106 -13 0 -1075 -564 -1075 -571 0 -4 97 -58 215 -120 119
-62 212 -116 208 -120 -5 -4 -354 -280 -778 -613 l-770 -605 -3 89 -3 90 -620
0 -619 0 2 -212 3 -213 43 -3 c23 -2 42 -8 42 -13 0 -19 -101 -613 -105 -617
-2 -2 -36 3 -76 12 -603 138 -1629 31 -1629 -169 0 -163 688 -274 1330 -214
236 22 463 77 549 134 102 68 65 146 -97 205 -34 12 -62 25 -62 29 0 3 23 147
51 318 l52 313 109 0 108 0 0 -674 0 -673 -317 -6 c-326 -5 -495 -20 -688 -58
-136 -27 -252 -65 -300 -97 -169 -116 77 -228 625 -284 166 -17 755 -17 920 0
380 39 626 107 670 185 13 24 13 30 0 55 -52 92 -335 160 -822 198 l-78 6 0
674 0 674 169 0 168 0 392 -560 c341 -486 401 -571 401 -557 0 1 -175 252
-389 557 l-389 555 164 3 163 2 448 -224 c378 -189 451 -229 465 -254 85 -156
626 -241 1116 -176 233 31 401 92 450 164 27 41 27 49 -1 91 -98 146 -633 225
-1112 163 -219 -28 -357 -75 -427 -145 l-49 -49 -425 213 -425 212 93 5 93 5
3 57 3 58 967 2 967 3 530 -174 530 -174 597 199 c329 109 598 201 598 204 0
3 -268 94 -595 203 l-595 199 -595 -199 c-327 -109 -595 -201 -595 -205 0 -3
26 -15 58 -26 l57 -20 -963 -1 -963 -1 3 54 3 54 784 616 c431 339 786 614
790 612 80 -44 620 -326 625 -326 13 0 1076 563 1076 570 0 3 -149 85 -330
180 l-331 174 613 613 613 613 1022 0 1023 0 0 215 0 215 -1215 0 -1215 0 0
-215z m2420 0 l0 -205 -1205 0 -1205 0 0 205 0 205 1205 0 1205 0 0 -205z
m-3475 -1339 c105 -55 192 -103 193 -108 2 -4 9 -8 15 -8 15 0 647 -332 647
-340 0 -4 -222 -123 -492 -265 -271 -143 -509 -268 -528 -279 l-35 -19 -527
278 c-291 153 -528 281 -528 285 0 9 1043 559 1055 557 6 -1 96 -47 200 -101z
m1177 -1788 c318 -106 578 -195 578 -198 0 -3 -263 -93 -583 -199 l-584 -195
-576 194 c-318 107 -577 197 -577 200 0 5 1135 388 1155 389 5 1 270 -86 587
-191z m-3594 -160 l-3 -203 -605 0 -605 0 -3 203 -2 202 610 0 610 0 -2 -202z
m1668 -448 c313 -25 538 -93 587 -178 22 -37 17 -59 -21 -98 -154 -156 -873
-211 -1289 -99 -157 42 -253 102 -253 159 0 143 501 254 976 216z m-3421 -341
c283 -18 505 -57 505 -87 0 -14 2 -14 9 -3 7 11 15 11 47 1 96 -31 174 -88
174 -126 0 -49 -107 -109 -263 -148 -519 -131 -1447 -73 -1629 101 -35 34 -35
62 0 96 128 122 661 199 1157 166z m1130 -808 c317 -36 528 -92 598 -158 32
-32 33 -42 7 -76 -78 -99 -468 -171 -990 -184 -453 -10 -874 32 -1101 111 -71
25 -136 66 -146 93 -34 89 275 185 717 222 147 12 784 6 915 -8z"/>
<path d="M7083 5550 c0 -36 2 -50 4 -32 2 17 2 47 0 65 -2 17 -4 3 -4 -33z"/>
<path d="M7464 5590 c-12 -12 -3 -92 11 -97 6 -2 9 18 8 48 -1 56 -4 64 -19
49z"/>
<path d="M8514 5590 c-12 -12 -3 -92 11 -97 6 -2 9 18 8 48 -1 56 -4 64 -19
49z"/>
<path d="M7110 5536 c0 -25 5 -46 10 -46 6 0 10 18 10 39 0 22 -4 43 -10 46
-6 4 -10 -12 -10 -39z"/>
<path d="M7147 5573 c7 -5 17 -27 22 -48 l10 -40 -2 45 c-2 36 -6 45 -22 48
-13 2 -16 0 -8 -5z"/>
<path d="M7207 5535 c8 -25 19 -45 23 -45 4 0 15 20 23 45 9 25 12 45 7 45 -5
0 -11 -13 -15 -30 -4 -16 -10 -30 -15 -30 -5 0 -11 14 -15 30 -4 17 -10 30
-15 30 -5 0 -2 -20 7 -45z"/>
<path d="M7293 5573 c-7 -2 -13 -20 -13 -39 0 -28 4 -35 26 -40 14 -4 30 -2
36 4 8 8 3 11 -17 9 -15 -1 -30 4 -32 11 -3 8 6 12 26 12 32 0 41 16 19 38
-13 13 -24 14 -45 5z m41 -18 c4 -11 -1 -15 -19 -15 -18 0 -23 4 -19 15 4 8
12 15 19 15 7 0 15 -7 19 -15z"/>
<path d="M7370 5536 c0 -25 5 -46 10 -46 6 0 10 18 10 39 0 22 -4 43 -10 46
-6 4 -10 -12 -10 -39z"/>
<path d="M7407 5573 c7 -5 17 -27 22 -48 l10 -40 -2 45 c-2 36 -6 45 -22 48
-13 2 -16 0 -8 -5z"/>
<path d="M7505 5570 c-4 -7 2 -9 19 -4 16 4 26 2 26 -4 0 -6 -10 -12 -22 -14
-17 -2 -23 -10 -23 -28 0 -22 5 -25 36 -26 34 -1 35 0 31 30 -3 17 -9 37 -14
44 -13 15 -44 16 -53 2z m45 -44 c0 -20 -19 -31 -32 -18 -6 6 -7 15 -4 21 10
16 36 13 36 -3z"/>
<path d="M7590 5533 c0 -24 5 -43 10 -43 6 0 10 15 10 33 0 18 5 38 11 44 9 9
7 12 -10 10 -18 -1 -21 -7 -21 -44z"/>
<path d="M7650 5535 c0 -25 5 -45 10 -45 6 0 10 20 10 45 0 25 -4 45 -10 45
-5 0 -10 -20 -10 -45z"/>
<path d="M7687 5574 c-11 -11 -8 -72 4 -79 5 -4 21 -4 35 -1 22 6 25 11 22 44
-3 31 -7 37 -28 40 -14 2 -29 0 -33 -4z m48 -39 c0 -23 -4 -30 -20 -30 -21 0
-31 25 -21 51 11 28 41 12 41 -21z"/>
<path d="M7866 5540 c23 -57 15 -68 -53 -73 l-58 -3 62 -2 c54 -2 64 1 73 19
20 36 39 99 31 99 -4 0 -13 -15 -18 -32 l-10 -33 -13 33 c-6 17 -16 32 -21 32
-5 0 -2 -18 7 -40z"/>
<path d="M8030 5533 c0 -24 5 -43 10 -43 6 0 10 15 10 33 0 18 5 38 11 44 9 9
7 12 -10 10 -18 -1 -21 -7 -21 -44z"/>
<path d="M8093 5573 c-7 -2 -13 -20 -13 -39 0 -28 4 -35 26 -40 14 -4 30 -2
36 4 8 8 3 11 -17 9 -15 -1 -30 4 -32 11 -3 8 6 12 26 12 32 0 41 16 19 38
-13 13 -24 14 -45 5z m41 -18 c4 -11 -1 -15 -19 -15 -18 0 -23 4 -19 15 4 8
12 15 19 15 7 0 15 -7 19 -15z"/>
<path d="M8170 5521 c0 -34 4 -61 10 -61 6 0 10 6 10 14 0 8 10 16 23 18 19 3
22 9 22 43 0 38 -2 40 -32 43 l-33 3 0 -60z m55 14 c0 -20 -6 -31 -17 -33 -15
-3 -18 4 -18 33 0 29 3 36 18 33 11 -2 17 -13 17 -33z"/>
<path d="M8263 5540 c2 -44 3 -45 35 -46 31 -1 32 0 32 43 0 23 -4 43 -10 43
-5 0 -10 -18 -10 -40 0 -45 -26 -58 -34 -17 -13 57 -14 59 -13 17z"/>
<path d="M8353 5573 c-7 -2 -13 -20 -13 -39 0 -28 4 -35 26 -40 14 -4 30 -2
36 4 8 8 3 11 -17 9 -15 -1 -30 4 -32 11 -3 8 6 12 26 12 32 0 41 16 19 38
-13 13 -24 14 -45 5z m41 -18 c4 -11 -1 -15 -19 -15 -18 0 -23 4 -19 15 4 8
12 15 19 15 7 0 15 -7 19 -15z"/>
<path d="M8437 5573 c-14 -14 -6 -34 18 -43 33 -13 33 -34 -1 -27 -16 3 -22 1
-16 -5 15 -15 46 -5 50 15 2 11 -6 20 -23 27 -30 11 -24 34 7 24 14 -4 18 -2
14 5 -8 12 -39 15 -49 4z"/>
<path d="M8567 5574 c-11 -11 -8 -72 4 -79 5 -4 21 -4 35 -1 22 6 25 11 22 44
-3 31 -7 37 -28 40 -14 2 -29 0 -33 -4z m48 -39 c0 -23 -4 -30 -20 -30 -21 0
-31 25 -21 51 11 28 41 12 41 -21z"/>
<path d="M8657 5573 c-14 -14 -6 -34 18 -43 33 -13 33 -34 -1 -27 -16 3 -22 1
-16 -5 15 -15 46 -5 50 15 2 11 -6 20 -23 27 -30 11 -24 34 7 24 14 -4 18 -2
14 5 -8 12 -39 15 -49 4z"/>
<path d="M7953 5463 c15 -2 37 -2 50 0 12 2 0 4 -28 4 -27 0 -38 -2 -22 -4z"/>
<path d="M5090 3779 c0 -52 15 -79 43 -79 36 0 47 19 45 75 l-2 50 -3 -47 c-4
-50 -21 -72 -47 -62 -12 4 -16 19 -16 55 0 27 -4 49 -10 49 -5 0 -10 -18 -10
-41z"/>
<path d="M5380 3806 c0 -8 -10 -16 -22 -18 -20 -3 -23 -9 -23 -43 0 -38 1 -40
33 -41 l32 -1 0 59 c0 32 -4 58 -10 58 -5 0 -10 -6 -10 -14z m-5 -62 c0 -19
-5 -29 -15 -29 -16 0 -25 28 -16 51 10 25 31 10 31 -22z"/>
<path d="M5550 3806 c0 -8 -10 -16 -22 -18 -18 -2 -24 -11 -29 -43 -5 -35 -6
-36 -8 -9 0 16 -6 35 -13 42 -15 15 -45 16 -53 2 -4 -7 2 -9 19 -4 16 4 26 2
26 -4 0 -6 -10 -12 -22 -14 -17 -2 -23 -10 -23 -28 0 -24 2 -25 73 -26 l72 -1
0 59 c0 32 -4 58 -10 58 -5 0 -10 -6 -10 -14z m-5 -62 c0 -19 -5 -29 -15 -29
-16 0 -25 28 -16 51 10 25 31 10 31 -22z m-75 -8 c0 -8 -5 -18 -11 -22 -14 -8
-33 11 -25 25 10 16 36 13 36 -3z"/>
<path d="M5210 3746 c0 -25 5 -46 10 -46 6 0 10 18 10 39 0 22 -4 43 -10 46
-6 4 -10 -12 -10 -39z"/>
<path d="M5247 3783 c7 -5 17 -27 22 -48 l10 -40 -2 45 c-2 36 -6 45 -22 48
-13 2 -16 0 -8 -5z"/>
<path d="M5290 3745 c0 -25 5 -45 10 -45 6 0 10 20 10 45 0 25 -4 45 -10 45
-5 0 -10 -20 -10 -45z"/>
<path d="M5603 3783 c-7 -2 -13 -20 -13 -39 0 -28 4 -35 26 -40 14 -4 30 -2
36 4 8 8 3 11 -17 9 -15 -1 -30 4 -32 11 -3 8 6 12 26 12 32 0 41 16 19 38
-13 13 -24 14 -45 5z m41 -18 c4 -11 -1 -15 -19 -15 -18 0 -23 4 -19 15 4 8
12 15 19 15 7 0 15 -7 19 -15z"/>
<path d="M5687 3783 c-14 -14 -6 -34 18 -43 33 -13 33 -34 -1 -27 -16 3 -22 1
-16 -5 15 -15 46 -5 50 15 2 11 -6 20 -23 27 -30 11 -24 34 7 24 14 -4 18 -2
14 5 -8 12 -39 15 -49 4z"/>
<path d="M5823 2230 c0 -36 2 -50 4 -32 2 17 2 47 0 65 -2 17 -4 3 -4 -33z"/>
<path d="M5945 2273 c-4 -10 -7 -34 -6 -55 2 -36 -15 -78 -33 -78 -18 0 -35
36 -36 72 0 20 -4 40 -10 43 -6 4 -10 -12 -10 -42 0 -51 -6 -67 -30 -76 -12
-4 -11 -6 3 -6 10 -1 20 6 23 14 4 8 12 15 19 15 7 0 15 -7 19 -15 3 -8 12
-15 21 -15 9 0 18 7 21 15 4 8 12 15 19 15 7 0 15 -7 19 -15 3 -8 12 -15 21
-15 9 0 18 7 21 15 4 8 12 15 19 15 7 0 15 -7 19 -15 3 -8 12 -15 21 -15 9 0
18 7 21 15 4 8 12 15 19 15 7 0 15 -7 19 -15 3 -8 12 -15 21 -15 9 0 18 7 21
15 4 8 12 15 19 15 7 0 15 -7 19 -15 3 -8 12 -15 21 -15 9 0 18 7 21 15 4 8
12 15 19 15 7 0 15 -7 19 -15 3 -8 12 -15 21 -15 9 0 18 7 21 15 4 8 12 15 19
15 7 0 15 -7 19 -15 3 -8 12 -15 21 -15 9 0 18 7 21 15 4 8 12 15 19 15 7 0
15 -7 19 -15 3 -8 12 -15 21 -15 9 0 18 7 21 15 4 8 12 15 19 15 7 0 15 -7 19
-15 3 -8 12 -15 21 -15 9 0 18 7 21 15 4 8 12 15 19 15 7 0 15 -7 19 -15 3 -8
10 -15 16 -15 5 0 2 9 -7 20 -10 11 -23 20 -30 20 -8 0 -13 14 -13 39 0 22 -4
43 -10 46 -6 4 -10 -12 -10 -39 0 -25 4 -46 10 -46 5 0 7 -7 4 -15 -8 -21 -27
-19 -42 5 -8 13 -8 20 -1 20 6 0 9 16 7 38 -3 34 -6 37 -33 37 -27 0 -30 -3
-33 -38 -2 -26 1 -39 12 -43 18 -7 10 -34 -10 -34 -16 0 -16 5 -14 73 1 28 -3
47 -9 47 -6 0 -11 -18 -11 -40 0 -55 -48 -105 -63 -66 -4 10 2 16 15 18 12 2
24 10 26 18 5 13 3 13 -12 1 -15 -13 -19 -13 -27 0 -22 35 -1 71 28 47 14 -11
15 -11 11 2 -2 8 -16 15 -29 15 -22 0 -24 -4 -24 -43 0 -47 -18 -52 -23 -6 -2
16 -8 35 -14 42 -13 15 -44 16 -53 2 -4 -7 2 -9 19 -4 16 4 26 2 26 -4 0 -6
-10 -12 -22 -14 -17 -2 -23 -10 -23 -28 0 -23 -26 -60 -41 -60 -13 0 -33 35
-34 57 -1 62 37 74 43 13 l4 -40 -1 42 -1 43 -52 1 -53 1 0 -43 c0 -24 5 -44
10 -44 6 0 10 18 10 40 0 29 4 40 15 40 11 0 15 -11 15 -37 -1 -56 -39 -97
-54 -58 -3 8 -12 15 -21 15 -18 0 -21 60 -4 77 9 9 7 12 -10 10 -18 -1 -21 -7
-21 -44 0 -24 4 -43 10 -43 5 0 7 -7 4 -15 -4 -8 -12 -15 -19 -15 -17 0 -29
32 -15 40 6 4 10 22 8 41 -3 30 -6 34 -33 34 -27 0 -30 -4 -33 -34 -2 -18 1
-38 6 -43 13 -13 4 -38 -13 -38 -17 0 -25 23 -25 71 0 24 5 39 13 39 9 0 8 3
-2 9 -7 5 -10 14 -7 20 4 6 3 11 -2 11 -6 0 -13 -8 -17 -17z m100 -58 c0 -23
-4 -30 -20 -30 -21 0 -31 25 -21 51 11 28 41 12 41 -21z m470 0 c0 -23 -4 -30
-20 -30 -21 0 -31 25 -21 51 11 28 41 12 41 -21z m-205 -9 c0 -8 -5 -18 -11
-22 -14 -8 -33 11 -25 25 10 16 36 13 36 -3z m13 -32 c9 -9 -4 -34 -18 -34
-17 0 -27 27 -12 34 17 7 23 7 30 0z"/>
<path d="M5887 2253 c7 -5 17 -27 22 -48 l10 -40 -2 45 c-2 36 -6 45 -22 48
-13 2 -16 0 -8 -5z"/>
<path d="M6587 2253 c7 -5 17 -27 22 -48 l10 -40 -2 45 c-2 36 -6 45 -22 48
-13 2 -16 0 -8 -5z"/>
<path d="M2150 2270 c0 -33 4 -60 10 -60 6 0 10 11 10 24 0 19 6 25 26 28 63
7 51 68 -12 68 l-34 0 0 -60z m68 23 c3 -19 -1 -23 -22 -23 -21 0 -26 5 -26
26 0 21 4 25 23 22 14 -2 23 -11 25 -25z"/>
<path d="M2700 2316 c0 -8 -10 -16 -22 -18 -20 -3 -23 -9 -23 -43 0 -38 1 -40
33 -41 l32 -1 0 59 c0 32 -4 58 -10 58 -5 0 -10 -6 -10 -14z m-5 -62 c0 -19
-5 -29 -15 -29 -16 0 -25 28 -16 51 10 25 31 10 31 -22z"/>
<path d="M2260 2253 c0 -24 5 -43 10 -43 6 0 10 15 10 33 0 18 5 38 11 44 9 9
7 12 -10 10 -18 -1 -21 -7 -21 -44z"/>
<path d="M2317 2294 c-11 -11 -8 -72 4 -79 5 -4 21 -4 35 -1 22 6 25 11 22 44
-3 31 -7 37 -28 40 -14 2 -29 0 -33 -4z m48 -39 c0 -23 -4 -30 -20 -30 -21 0
-31 25 -21 51 11 28 41 12 41 -21z"/>
<path d="M2407 2255 c8 -25 19 -45 23 -45 4 0 15 20 23 45 9 25 12 45 7 45 -5
0 -11 -13 -15 -30 -4 -16 -10 -30 -15 -30 -5 0 -11 14 -15 30 -4 17 -10 30
-15 30 -5 0 -2 -20 7 -45z"/>
<path d="M2493 2293 c-7 -2 -13 -20 -13 -39 0 -28 4 -35 26 -40 14 -4 30 -2
36 4 8 8 3 11 -17 9 -15 -1 -30 4 -32 11 -3 8 6 12 26 12 32 0 41 16 19 38
-13 13 -24 14 -45 5z m41 -18 c4 -11 -1 -15 -19 -15 -18 0 -23 4 -19 15 4 8
12 15 19 15 7 0 15 -7 19 -15z"/>
<path d="M2583 2293 c-7 -2 -13 -20 -13 -39 0 -28 4 -35 26 -40 14 -4 30 -2
36 4 8 8 3 11 -17 9 -15 -1 -30 4 -32 11 -3 8 6 12 26 12 32 0 41 16 19 38
-13 13 -24 14 -45 5z m41 -18 c4 -11 -1 -15 -19 -15 -18 0 -23 4 -19 15 4 8
12 15 19 15 7 0 15 -7 19 -15z"/>
<path d="M2747 2294 c-11 -11 -8 -72 4 -79 5 -4 21 -4 35 -1 22 6 25 11 22 44
-3 31 -7 37 -28 40 -14 2 -29 0 -33 -4z m48 -39 c0 -23 -4 -30 -20 -30 -21 0
-31 25 -21 51 11 28 41 12 41 -21z"/>
<path d="M2830 2253 c0 -24 5 -43 10 -43 6 0 10 15 10 33 0 18 5 38 11 44 9 9
7 12 -10 10 -18 -1 -21 -7 -21 -44z"/>
<path d="M2903 2293 c-7 -2 -13 -20 -13 -39 0 -28 4 -35 26 -40 14 -4 30 -2
36 4 8 8 3 11 -17 9 -15 -1 -30 4 -32 11 -3 8 6 12 26 12 32 0 41 16 19 38
-13 13 -24 14 -45 5z m41 -18 c4 -11 -1 -15 -19 -15 -18 0 -23 4 -19 15 4 8
12 15 19 15 7 0 15 -7 19 -15z"/>
<path d="M2977 2293 c-14 -14 -6 -34 18 -43 33 -13 33 -34 -1 -27 -16 3 -22 1
-16 -5 15 -15 46 -5 50 15 2 11 -6 20 -23 27 -30 11 -24 34 7 24 14 -4 18 -2
14 5 -8 12 -39 15 -49 4z"/>
<path d="M4640 1656 c0 -8 -10 -16 -22 -18 -20 -3 -23 -9 -23 -43 0 -38 1 -40
33 -41 l32 -1 0 59 c0 32 -4 58 -10 58 -5 0 -10 -6 -10 -14z m-5 -62 c0 -19
-5 -29 -15 -29 -16 0 -25 28 -16 51 10 25 31 10 31 -22z"/>
<path d="M4760 1656 c0 -8 -10 -16 -22 -18 -20 -3 -23 -9 -23 -43 0 -38 1 -40
33 -41 l32 -1 0 59 c0 32 -4 58 -10 58 -5 0 -10 -6 -10 -14z m-5 -62 c0 -19
-5 -29 -15 -29 -16 0 -25 28 -16 51 10 25 31 10 31 -22z"/>
<path d="M4410 1581 c0 -34 4 -61 10 -61 6 0 10 6 10 14 0 8 10 16 23 18 19 3
22 9 22 43 0 38 -2 40 -32 43 l-33 3 0 -60z m55 14 c0 -20 -6 -31 -17 -33 -15
-3 -18 4 -18 33 0 29 3 36 18 33 11 -2 17 -13 17 -33z"/>
<path d="M4513 1633 c-7 -2 -13 -20 -13 -39 0 -28 4 -35 26 -40 14 -4 30 -2
36 4 8 8 3 11 -17 9 -15 -1 -30 4 -32 11 -3 8 6 12 26 12 32 0 41 16 19 38
-13 13 -24 14 -45 5z m41 -18 c4 -11 -1 -15 -19 -15 -18 0 -23 4 -19 15 4 8
12 15 19 15 7 0 15 -7 19 -15z"/>
<path d="M4670 1595 c0 -25 5 -45 10 -45 6 0 10 20 10 45 0 25 -4 45 -10 45
-5 0 -10 -20 -10 -45z"/>
<path d="M4807 1634 c-11 -11 -8 -72 4 -79 5 -4 21 -4 35 -1 22 6 25 11 22 44
-3 31 -7 37 -28 40 -14 2 -29 0 -33 -4z m48 -39 c0 -23 -4 -30 -20 -30 -21 0
-31 25 -21 51 11 28 41 12 41 -21z"/>
<path d="M4897 1633 c-14 -14 -6 -34 18 -43 33 -13 33 -34 -1 -27 -16 3 -22 1
-16 -5 15 -15 46 -5 50 15 2 11 -6 20 -23 27 -30 11 -24 34 7 24 14 -4 18 -2
14 5 -8 12 -39 15 -49 4z"/>
<path d="M920 1316 c0 -8 -10 -16 -22 -18 -31 -4 -39 -65 -12 -85 16 -12 16
-13 -7 -13 -25 0 -66 20 -41 20 9 0 12 12 10 38 -3 34 -6 37 -33 37 -27 0 -30
-3 -33 -38 -3 -31 1 -39 20 -46 23 -10 23 -10 1 -10 -35 -1 -52 9 -45 27 5 15
4 15 -12 3 -15 -13 -19 -13 -27 0 -22 35 -1 71 28 47 14 -11 15 -11 11 2 -2 8
-16 15 -29 15 -21 0 -24 -5 -27 -38 -3 -31 1 -39 20 -46 22 -9 22 -10 -7 -11
-30 -2 -30 -2 -5 -10 19 -6 21 -8 6 -9 -11 -1 -16 -4 -13 -8 4 -3 18 0 32 7
20 11 27 11 40 0 13 -11 20 -11 40 0 20 11 27 11 40 0 13 -11 20 -11 41 0 16
9 28 10 34 4 6 -6 34 -7 68 -3 31 4 212 7 402 8 189 1 346 4 349 6 2 3 -151 5
-340 6 -189 1 -333 4 -319 8 21 6 25 13 25 46 0 38 -2 40 -32 43 l-33 3 0 -50
0 -51 -59 0 c-35 0 -63 5 -67 12 -4 7 -3 8 4 4 9 -5 12 10 12 53 0 34 -4 61
-10 61 -5 0 -10 -6 -10 -14z m-85 -61 c0 -23 -4 -30 -20 -30 -21 0 -31 25 -21
51 11 28 41 12 41 -21z m80 -1 c0 -19 -5 -29 -15 -29 -16 0 -25 28 -16 51 10
25 31 10 31 -22z m190 1 c0 -20 -6 -31 -17 -33 -15 -3 -18 4 -18 33 0 29 3 36
18 33 11 -2 17 -13 17 -33z m-298 -71 c-3 -3 -12 -4 -19 -1 -8 3 -5 6 6 6 11
1 17 -2 13 -5z m80 0 c-3 -3 -12 -4 -19 -1 -8 3 -5 6 6 6 11 1 17 -2 13 -5z"/>
<path d="M1580 1316 c0 -8 -10 -16 -22 -18 -20 -3 -23 -9 -23 -43 0 -38 1 -40
33 -41 l32 -1 0 59 c0 32 -4 58 -10 58 -5 0 -10 -6 -10 -14z m-5 -62 c0 -19
-5 -29 -15 -29 -16 0 -25 28 -16 51 10 25 31 10 31 -22z"/>
<path d="M1130 1253 c0 -24 5 -43 10 -43 6 0 10 15 10 33 0 18 5 38 11 44 9 9
7 12 -10 10 -18 -1 -21 -7 -21 -44z"/>
<path d="M1197 1294 c-11 -11 -8 -72 4 -79 5 -4 21 -4 35 -1 22 6 25 11 22 44
-3 31 -7 37 -28 40 -14 2 -29 0 -33 -4z m48 -39 c0 -23 -4 -30 -20 -30 -21 0
-31 25 -21 51 11 28 41 12 41 -21z"/>
<path d="M1287 1255 c8 -25 19 -45 23 -45 4 0 15 20 23 45 9 25 12 45 7 45 -5
0 -11 -13 -15 -30 -4 -16 -10 -30 -15 -30 -5 0 -11 14 -15 30 -4 17 -10 30
-15 30 -5 0 -2 -20 7 -45z"/>
<path d="M1373 1293 c-7 -2 -13 -20 -13 -39 0 -28 4 -35 26 -40 14 -4 30 -2
36 4 8 8 3 11 -17 9 -15 -1 -30 4 -32 11 -3 8 6 12 26 12 32 0 41 16 19 38
-13 13 -24 14 -45 5z m41 -18 c4 -11 -1 -15 -19 -15 -18 0 -23 4 -19 15 4 8
12 15 19 15 7 0 15 -7 19 -15z"/>
<path d="M1463 1293 c-7 -2 -13 -20 -13 -39 0 -28 4 -35 26 -40 14 -4 30 -2
36 4 8 8 3 11 -17 9 -15 -1 -30 4 -32 11 -3 8 6 12 26 12 32 0 41 16 19 38
-13 13 -24 14 -45 5z m41 -18 c4 -11 -1 -15 -19 -15 -18 0 -23 4 -19 15 4 8
12 15 19 15 7 0 15 -7 19 -15z"/>
<path d="M1627 1294 c-11 -11 -8 -72 4 -79 5 -4 21 -4 35 -1 22 6 25 11 22 44
-3 31 -7 37 -28 40 -14 2 -29 0 -33 -4z m48 -39 c0 -23 -4 -30 -20 -30 -21 0
-31 25 -21 51 11 28 41 12 41 -21z"/>
<path d="M1710 1253 c0 -24 5 -43 10 -43 6 0 10 15 10 33 0 18 5 38 11 44 9 9
7 12 -10 10 -18 -1 -21 -7 -21 -44z"/>
<path d="M2430 516 c0 -8 -10 -16 -22 -18 -20 -3 -23 -9 -23 -43 0 -37 2 -40
27 -40 14 1 24 -3 22 -7 -3 -4 -220 -9 -482 -10 l-477 -2 450 -6 c248 -3 458
-10 468 -14 10 -5 23 -3 32 4 13 11 20 10 40 0 20 -11 27 -11 40 0 12 10 20
11 38 1 16 -9 31 -9 49 -2 17 6 29 6 36 -1 12 -12 42 -4 42 12 0 5 -12 10 -27
11 -27 0 -28 0 -5 10 19 7 23 15 20 46 -3 35 -6 38 -35 41 l-33 3 0 -50 c0
-49 -1 -51 -27 -51 -24 1 -25 2 -10 11 25 15 21 38 -9 49 -30 12 -22 34 9 24
17 -5 19 -3 11 6 -16 16 -48 9 -52 -13 -2 -11 6 -20 22 -27 33 -12 34 -34 1
-28 -14 3 -23 1 -22 -6 1 -6 -11 -11 -28 -11 -30 0 -30 0 -33 63 -2 34 -7 62
-12 62 -6 0 -10 -6 -10 -14z m-5 -62 c0 -19 -5 -29 -15 -29 -16 0 -25 28 -16
51 10 25 31 10 31 -22z m220 1 c0 -20 -6 -31 -17 -33 -15 -3 -18 4 -18 33 0
29 3 36 18 33 11 -2 17 -13 17 -33z m-228 -71 c-3 -3 -12 -4 -19 -1 -8 3 -5 6
6 6 11 1 17 -2 13 -5z m80 0 c-3 -3 -12 -4 -19 -1 -8 3 -5 6 6 6 11 1 17 -2
13 -5z m80 0 c-3 -3 -12 -4 -19 -1 -8 3 -5 6 6 6 11 1 17 -2 13 -5z m80 0 c-3
-3 -12 -4 -19 -1 -8 3 -5 6 6 6 11 1 17 -2 13 -5z"/>
<path d="M2034 510 c-12 -12 -3 -92 11 -97 6 -2 9 18 8 48 -1 56 -4 64 -19 49z"/>
<path d="M1497 493 c-14 -14 -6 -34 18 -43 33 -13 33 -34 -1 -27 -16 3 -22 1
-16 -5 15 -15 46 -5 50 15 2 11 -6 20 -23 27 -30 11 -24 34 7 24 14 -4 18 -2
14 5 -8 12 -39 15 -49 4z"/>
<path d="M1573 460 c2 -44 3 -45 35 -46 31 -1 32 0 32 43 0 23 -4 43 -10 43
-5 0 -10 -18 -10 -40 0 -45 -26 -58 -34 -17 -13 57 -14 59 -13 17z"/>
<path d="M1660 454 c0 -24 5 -44 10 -44 6 0 10 18 10 40 0 29 4 40 15 40 11 0
15 -12 16 -42 1 -24 3 -34 6 -23 2 11 6 30 9 43 8 39 32 26 37 -20 l4 -43 -1
45 -1 45 -52 1 -53 1 0 -43z"/>
<path d="M1790 455 c0 -25 5 -45 10 -45 6 0 10 20 10 45 0 25 -4 45 -10 45 -5
0 -10 -20 -10 -45z"/>
<path d="M1830 456 c0 -25 5 -46 10 -46 6 0 10 18 10 39 0 22 -4 43 -10 46 -6
4 -10 -12 -10 -39z"/>
<path d="M1867 493 c7 -5 17 -27 22 -48 l10 -40 -2 45 c-2 36 -6 45 -22 48
-13 2 -16 0 -8 -5z"/>
<path d="M1910 455 c0 -25 5 -45 10 -45 6 0 10 20 10 45 0 25 -4 45 -10 45 -5
0 -10 -20 -10 -45z"/>
<path d="M1957 493 c-14 -14 -6 -34 18 -43 33 -13 33 -34 -1 -27 -16 3 -22 1
-16 -5 15 -15 46 -5 50 15 2 11 -6 20 -23 27 -30 11 -24 34 7 24 14 -4 18 -2
14 5 -8 12 -39 15 -49 4z"/>
<path d="M2070 453 c0 -24 5 -43 10 -43 6 0 10 15 10 33 0 18 5 38 11 44 9 9
7 12 -10 10 -18 -1 -21 -7 -21 -44z"/>
<path d="M2137 494 c-11 -11 -8 -72 4 -79 5 -4 21 -4 35 -1 22 6 25 11 22 44
-3 31 -7 37 -28 40 -14 2 -29 0 -33 -4z m48 -39 c0 -23 -4 -30 -20 -30 -21 0
-31 25 -21 51 11 28 41 12 41 -21z"/>
<path d="M2227 493 c-14 -14 -6 -34 18 -43 33 -13 33 -34 -1 -27 -16 3 -22 1
-16 -5 15 -15 46 -5 50 15 2 11 -6 20 -23 27 -30 11 -24 34 7 24 14 -4 18 -2
14 5 -8 12 -39 15 -49 4z"/>
<path d="M2470 455 c0 -25 5 -45 10 -45 6 0 10 20 10 45 0 25 -4 45 -10 45 -5
0 -10 -20 -10 -45z"/>
<path d="M3715 5450 c285 -4 371 -7 320 -14 -302 -36 -499 -91 -572 -159 -32
-29 -30 -76 5 -110 159 -153 958 -223 1552 -137 241 35 389 86 444 151 33 38
28 62 -20 106 -122 109 -644 183 -1159 163 -88 -3 -161 -2 -163 2 -2 4 -182 7
-400 6 l-397 -3 390 -5z m1105 -21 c344 -27 608 -101 649 -184 12 -24 11 -30
-6 -54 -45 -61 -233 -123 -468 -155 -652 -91 -1545 16 -1545 184 0 34 23 61
77 89 218 111 758 161 1293 120z"/>
<path d="M4230 5229 l0 -60 33 3 c30 3 32 5 32 43 0 34 -3 40 -22 43 -13 2
-23 10 -23 18 0 8 -4 14 -10 14 -6 0 -10 -27 -10 -61z m55 -15 c0 -19 -6 -30
-17 -32 -14 -3 -18 3 -18 26 0 16 3 32 7 36 14 13 28 -1 28 -30z"/>
<path d="M4630 5230 c0 -33 4 -60 10 -60 6 0 10 27 10 60 0 33 -4 60 -10 60
-6 0 -10 -27 -10 -60z"/>
<path d="M4874 5270 c-12 -12 -3 -92 11 -97 6 -2 9 18 8 48 -1 56 -4 64 -19
49z"/>
<path d="M3920 5216 c0 -25 5 -46 10 -46 6 0 10 18 10 39 0 22 -4 43 -10 46
-6 4 -10 -12 -10 -39z"/>
<path d="M3957 5253 c7 -5 17 -27 22 -48 l10 -40 -2 45 c-2 36 -6 45 -22 48
-13 2 -16 0 -8 -5z"/>
<path d="M4017 5254 c-11 -11 -8 -72 4 -79 5 -4 21 -4 35 -1 22 6 25 11 22 44
-3 31 -7 37 -28 40 -14 2 -29 0 -33 -4z m48 -39 c0 -23 -4 -30 -20 -30 -21 0
-31 25 -21 51 11 28 41 12 41 -21z"/>
<path d="M4100 5214 c0 -24 5 -44 10 -44 6 0 10 18 10 40 0 29 4 40 15 40 11
0 15 -12 16 -42 1 -24 3 -34 6 -23 2 11 6 30 9 43 8 39 32 26 37 -20 l4 -43
-1 45 -1 45 -52 1 -53 1 0 -43z"/>
<path d="M4320 5213 c0 -24 5 -43 10 -43 6 0 10 15 10 33 0 18 5 38 11 44 9 9
7 12 -10 10 -18 -1 -21 -7 -21 -44z"/>
<path d="M4383 5253 c-7 -2 -13 -20 -13 -39 0 -28 4 -35 26 -40 14 -4 30 -2
36 4 8 8 3 11 -17 9 -15 -1 -30 4 -32 11 -3 8 6 12 26 12 32 0 41 16 19 38
-13 13 -24 14 -45 5z m41 -18 c4 -11 -1 -15 -19 -15 -18 0 -23 4 -19 15 4 8
12 15 19 15 7 0 15 -7 19 -15z"/>
<path d="M4554 5247 c-3 -9 -4 -28 -2 -44 2 -22 8 -28 27 -28 13 0 27 7 29 15
5 13 3 13 -12 1 -15 -13 -19 -13 -27 0 -22 35 -1 71 28 47 14 -11 16 -11 11 2
-6 20 -47 25 -54 7z"/>
<path d="M4660 5215 c0 -25 5 -45 10 -45 6 0 10 20 10 45 0 25 -4 45 -10 45
-5 0 -10 -20 -10 -45z"/>
<path d="M4713 5253 c-7 -2 -13 -20 -13 -39 0 -28 4 -35 26 -40 14 -4 30 -2
36 4 8 8 3 11 -17 9 -15 -1 -30 4 -32 11 -3 8 6 12 26 12 32 0 41 16 19 38
-13 13 -24 14 -45 5z m41 -18 c4 -11 -1 -15 -19 -15 -18 0 -23 4 -19 15 4 8
12 15 19 15 7 0 15 -7 19 -15z"/>
<path d="M4790 5216 c0 -25 5 -46 10 -46 6 0 10 18 10 39 0 22 -4 43 -10 46
-6 4 -10 -12 -10 -39z"/>
<path d="M4827 5253 c7 -5 17 -27 22 -48 l10 -40 -2 45 c-2 36 -6 45 -22 48
-13 2 -16 0 -8 -5z"/>
<path d="M4933 5253 c-7 -2 -13 -20 -13 -39 0 -28 4 -35 26 -40 14 -4 30 -2
36 4 8 8 3 11 -17 9 -15 -1 -30 4 -32 11 -3 8 6 12 26 12 32 0 41 16 19 38
-13 13 -24 14 -45 5z m41 -18 c4 -11 -1 -15 -19 -15 -18 0 -23 4 -19 15 4 8
12 15 19 15 7 0 15 -7 19 -15z"/>
<path d="M4473 5143 c15 -2 37 -2 50 0 12 2 0 4 -28 4 -27 0 -38 -2 -22 -4z"/>
<path d="M2530 4900 l-5 -445 -447 -235 c-245 -129 -449 -238 -452 -241 -3 -3
199 -113 449 -245 l455 -239 2 -500 3 -500 2 498 3 498 74 -40 c40 -23 80 -41
87 -41 19 0 1072 555 1076 566 1 5 -239 136 -535 290 l-537 282 -77 -39 c-43
-21 -80 -39 -83 -39 -2 0 -6 197 -7 438 l-3 437 -5 -445z m824 -705 c220 -115
399 -214 399 -219 -1 -10 -1031 -555 -1050 -556 -17 0 -163 80 -163 90 0 4 -6
7 -13 6 -19 -2 -888 457 -879 465 23 20 873 459 881 455 5 -3 11 1 15 9 3 8
40 32 83 53 l77 39 126 -66 c69 -36 305 -160 524 -276z"/>
<path d="M2840 3990 c0 -53 2 -60 20 -60 13 0 18 -5 14 -15 -4 -8 -10 -15 -15
-15 -17 0 -44 35 -41 53 2 11 -6 20 -23 27 -31 12 -23 34 8 24 17 -5 19 -3 11
6 -16 16 -48 9 -52 -13 -2 -11 6 -20 22 -27 33 -12 34 -34 1 -28 -13 3 -22 1
-19 -3 3 -5 12 -9 19 -9 9 0 12 -6 9 -15 -16 -41 -53 3 -54 63 0 24 -5 42 -11
42 -7 0 -10 -16 -8 -43 4 -38 2 -43 -14 -39 -9 2 -19 14 -22 26 -11 55 -13 58
-12 16 2 -38 5 -45 24 -48 14 -2 20 -8 16 -18 -7 -18 -29 -18 -37 1 -3 8 -11
15 -18 15 -9 0 -13 15 -13 42 0 41 -1 43 -32 46 -33 3 -33 3 -33 -42 0 -58
-18 -60 -22 -3 l-3 42 -52 1 -53 1 0 -43 c0 -24 5 -44 10 -44 6 0 10 18 10 40
0 29 4 40 15 40 23 0 19 -66 -5 -90 -17 -17 -39 -26 -41 -17 0 1 -3 22 -6 47
-3 25 -10 51 -15 58 -13 15 -44 16 -53 2 -4 -7 2 -9 19 -4 16 4 26 2 26 -4 0
-6 -10 -12 -22 -14 -31 -4 -38 -47 -9 -55 19 -5 19 -33 0 -33 -16 0 -45 36
-40 51 4 12 2 12 -13 0 -15 -13 -19 -13 -27 0 -22 35 -1 71 28 47 14 -11 15
-11 11 2 -2 8 -16 15 -29 15 -21 0 -24 -5 -27 -38 -3 -32 0 -39 17 -44 23 -6
18 -30 -7 -36 -15 -4 -15 -5 1 -6 10 0 20 6 23 14 4 8 12 15 19 15 7 0 15 -7
19 -15 3 -8 12 -15 21 -15 9 0 18 7 21 15 4 8 12 15 19 15 7 0 15 -7 19 -15 3
-8 12 -15 21 -15 9 0 18 7 21 15 4 8 12 15 19 15 7 0 15 -7 19 -15 7 -20 33
-19 44 2 9 16 11 16 27 0 20 -21 44 -22 51 -2 4 8 12 15 19 15 7 0 15 -7 19
-15 3 -8 12 -15 21 -15 9 0 18 7 21 15 4 8 12 15 19 15 7 0 15 -7 19 -15 3 -8
12 -15 21 -15 9 0 18 7 21 15 4 8 12 15 19 15 7 0 15 -7 19 -15 3 -8 12 -15
21 -15 9 0 18 7 21 15 4 8 12 15 19 15 7 0 15 -7 19 -15 3 -8 12 -15 21 -15 9
0 18 7 21 15 4 8 12 15 19 15 7 0 15 -7 19 -15 3 -8 12 -15 21 -15 9 0 18 7
21 15 8 20 24 19 39 -2 13 -18 45 -12 44 9 0 10 -2 10 -6 1 -7 -18 -30 -16
-37 2 -3 9 0 15 9 15 7 0 16 4 20 9 3 6 -7 9 -21 8 -15 -1 -29 4 -31 11 -3 8
6 12 26 12 20 0 31 5 31 14 0 21 -27 38 -50 31 -15 -5 -20 -15 -20 -41 0 -19
5 -34 10 -34 6 0 1 -9 -10 -20 -11 -11 -23 -20 -26 -20 -12 0 -33 35 -33 55 0
19 1 19 16 -2 22 -32 37 -29 17 3 -13 19 -14 28 -5 37 20 20 12 31 -9 12 -20
-18 -20 -17 -20 13 0 18 -4 32 -10 32 -6 0 -10 -26 -10 -59 0 -67 -6 -91 -25
-91 -17 0 -27 26 -29 75 -1 33 -5 41 -23 43 -13 2 -23 10 -23 18 0 8 -4 14
-10 14 -6 0 -10 -27 -10 -60z m-288 -25 c4 -53 1 -65 -17 -65 -15 0 -25 22
-25 55 0 67 36 76 42 10z m83 10 c0 -20 -6 -31 -17 -33 -15 -3 -18 4 -18 33 0
29 3 36 18 33 11 -2 17 -13 17 -33z m260 -1 c0 -19 -6 -30 -17 -32 -14 -3 -18
3 -18 26 0 16 3 32 7 36 14 13 28 -1 28 -30z m199 21 c4 -11 -1 -15 -19 -15
-18 0 -23 4 -19 15 4 8 12 15 19 15 7 0 15 -7 19 -15z m-687 -35 c-3 -10 0
-21 7 -24 7 -3 7 -5 0 -5 -18 -2 -47 26 -40 37 12 21 39 14 33 -8z m227 -45
c-4 -8 -12 -15 -20 -15 -8 0 -14 7 -14 15 0 8 9 15 20 15 13 0 18 -5 14 -15z"/>
<path d="M2930 3975 c0 -25 5 -45 10 -45 6 0 10 20 10 45 0 25 -4 45 -10 45
-5 0 -10 -20 -10 -45z"/>
<path d="M2690 4895 c0 -101 18 -115 22 -17 l3 67 40 -67 c22 -37 46 -68 53
-68 9 0 12 24 12 85 0 100 -18 115 -22 19 l-3 -66 -38 66 c-54 92 -67 88 -67
-19z"/>
<path d="M5960 4666 c0 -51 4 -86 10 -86 6 0 10 30 11 68 l0 67 26 -67 c14
-38 29 -68 33 -68 5 0 17 24 28 53 11 28 22 59 25 67 3 8 6 -15 6 -52 1 -55
-2 -68 -14 -68 -9 0 -18 -7 -21 -15 -4 -8 -12 -15 -19 -15 -7 0 -15 7 -19 15
-7 19 -32 20 -43 1 -4 -7 -15 -16 -23 -19 -12 -4 -11 -6 3 -6 10 -1 20 6 23
14 4 8 12 15 19 15 7 0 15 -7 19 -15 3 -8 12 -15 21 -15 9 0 18 7 21 15 4 8
12 15 19 15 7 0 15 -7 19 -15 3 -8 13 -14 23 -14 16 1 16 2 1 6 -18 5 -33 33
-18 33 6 0 10 37 10 85 0 108 -17 114 -53 18 l-25 -68 -12 30 c-7 17 -18 46
-25 65 -6 19 -19 36 -28 38 -15 3 -17 -8 -17 -82z"/>
<path d="M9110 3059 c-327 -29 -601 -98 -664 -168 -54 -59 6 -128 152 -175
l52 -18 0 -174 0 -174 -305 0 -304 0 -3 -147 -3 -148 -540 -5 -540 -5 543 -3
542 -2 0 -55 0 -54 126 -3 127 -3 -322 -214 c-177 -118 -325 -219 -328 -224
-3 -5 147 93 333 217 l339 226 284 0 284 0 385 -220 c212 -121 387 -219 389
-217 2 2 -165 100 -371 218 l-375 214 384 3 385 2 0 210 0 210 -510 0 -510 0
0 174 0 174 53 -13 c86 -23 322 -54 492 -65 599 -39 1238 44 1361 177 30 32
30 52 3 87 -61 78 -325 145 -684 176 -140 11 -637 11 -775 -1z m775 -9 c358
-30 633 -102 682 -177 15 -23 15 -28 2 -51 -21 -38 -72 -69 -160 -97 -270 -85
-763 -124 -1204 -95 -261 18 -532 61 -542 87 -4 10 -8 11 -13 3 -9 -14 -131
31 -177 66 -74 56 -25 121 131 173 131 43 273 67 566 94 86 9 607 6 715 -3z
m-1233 -742 l1 -33 4 33 4 32 505 0 504 0 0 -200 0 -200 -810 0 -810 0 0 50
c0 45 2 50 23 51 l22 2 -22 4 c-23 4 -23 7 -23 149 l0 144 300 0 300 0 2 -32z"/>
<path d="M9200 2849 l0 -60 33 3 c30 3 32 5 32 43 0 34 -3 40 -22 43 -13 2
-23 10 -23 18 0 8 -4 14 -10 14 -6 0 -10 -27 -10 -61z m55 -15 c0 -19 -6 -30
-17 -32 -14 -3 -18 3 -18 26 0 16 3 32 7 36 14 13 28 -1 28 -30z"/>
<path d="M9800 2896 c0 -8 -10 -16 -22 -18 -20 -3 -23 -9 -23 -43 0 -38 1 -40
33 -41 l32 -1 0 59 c0 32 -4 58 -10 58 -5 0 -10 -6 -10 -14z m-5 -62 c0 -19
-5 -29 -15 -29 -16 0 -25 28 -16 51 10 25 31 10 31 -22z"/>
<path d="M10014 2890 c-12 -12 -3 -92 11 -97 6 -2 9 18 8 48 -1 56 -4 64 -19
49z"/>
<path d="M8890 2836 c0 -25 5 -46 10 -46 6 0 10 18 10 39 0 22 -4 43 -10 46
-6 4 -10 -12 -10 -39z"/>
<path d="M8927 2873 c7 -5 17 -27 22 -48 l10 -40 -2 45 c-2 36 -6 45 -22 48
-13 2 -16 0 -8 -5z"/>
<path d="M8987 2874 c-11 -11 -8 -72 4 -79 5 -4 21 -4 35 -1 22 6 25 11 22 44
-3 31 -7 37 -28 40 -14 2 -29 0 -33 -4z m48 -39 c0 -23 -4 -30 -20 -30 -21 0
-31 25 -21 51 11 28 41 12 41 -21z"/>
<path d="M9070 2834 c0 -24 5 -44 10 -44 6 0 10 18 10 40 0 29 4 40 15 40 11
0 15 -12 16 -42 1 -24 3 -34 6 -23 2 11 6 30 9 43 8 39 32 26 37 -20 l4 -43
-1 45 -1 45 -52 1 -53 1 0 -43z"/>
<path d="M9290 2833 c0 -24 5 -43 10 -43 6 0 10 15 10 33 0 18 5 38 11 44 9 9
7 12 -10 10 -18 -1 -21 -7 -21 -44z"/>
<path d="M9353 2873 c-7 -2 -13 -20 -13 -39 0 -28 4 -35 26 -40 14 -4 30 -2
36 4 8 8 3 11 -17 9 -15 -1 -30 4 -32 11 -3 8 6 12 26 12 32 0 41 16 19 38
-13 13 -24 14 -45 5z m41 -18 c4 -11 -1 -15 -19 -15 -18 0 -23 4 -19 15 4 8
12 15 19 15 7 0 15 -7 19 -15z"/>
<path d="M9520 2821 c0 -34 4 -61 10 -61 6 0 10 6 10 14 0 8 10 16 23 18 19 3
22 9 22 43 0 38 -2 40 -32 43 l-33 3 0 -60z m55 14 c0 -20 -6 -31 -17 -33 -15
-3 -18 4 -18 33 0 29 3 36 18 33 11 -2 17 -13 17 -33z"/>
<path d="M9610 2833 c0 -24 5 -43 10 -43 6 0 10 15 10 33 0 18 5 38 11 44 9 9
7 12 -10 10 -18 -1 -21 -7 -21 -44z"/>
<path d="M9667 2874 c-11 -11 -8 -72 4 -79 5 -4 21 -4 35 -1 22 6 25 11 22 44
-3 31 -7 37 -28 40 -14 2 -29 0 -33 -4z m48 -39 c0 -23 -4 -30 -20 -30 -21 0
-31 25 -21 51 11 28 41 12 41 -21z"/>
<path d="M9843 2840 c2 -44 3 -45 35 -46 31 -1 32 0 32 43 0 23 -4 43 -10 43
-5 0 -10 -18 -10 -40 0 -45 -26 -58 -34 -17 -13 57 -14 59 -13 17z"/>
<path d="M9924 2867 c-3 -9 -4 -28 -2 -44 2 -22 8 -28 27 -28 13 0 27 7 29 15
5 13 3 13 -12 1 -15 -13 -19 -13 -27 0 -22 35 -1 71 28 47 14 -11 16 -11 11 2
-6 20 -47 25 -54 7z"/>
<path d="M10057 2874 c-11 -11 -8 -72 4 -79 5 -4 21 -4 35 -1 22 6 25 11 22
44 -3 31 -7 37 -28 40 -14 2 -29 0 -33 -4z m48 -39 c0 -23 -4 -30 -20 -30 -21
0 -31 25 -21 51 11 28 41 12 41 -21z"/>
<path d="M9443 2763 c15 -2 37 -2 50 0 12 2 0 4 -28 4 -27 0 -38 -2 -22 -4z"/>
<path d="M8183 2150 c12 -33 26 -59 31 -57 12 4 48 97 43 111 -2 6 -13 -13
-24 -43 l-20 -55 -17 52 c-10 29 -21 52 -26 52 -5 0 1 -27 13 -60z"/>
<path d="M8936 2194 c-9 -8 -16 -28 -16 -44 0 -53 60 -81 91 -43 15 18 15 18
-35 -3 -20 -8 -47 36 -40 63 7 27 29 36 54 23 27 -14 34 -12 20 5 -16 20 -54
19 -74 -1z"/>
<path d="M8444 2190 c-12 -12 -3 -92 11 -97 6 -2 9 18 8 48 -1 56 -4 64 -19
49z"/>
<path d="M8283 2173 c-7 -2 -13 -20 -13 -39 0 -28 4 -35 26 -40 14 -4 30 -2
36 4 8 8 3 11 -17 9 -15 -1 -30 4 -32 11 -3 8 6 12 26 12 32 0 41 16 19 38
-13 13 -24 14 -45 5z m41 -18 c4 -11 -1 -15 -19 -15 -18 0 -23 4 -19 15 4 8
12 15 19 15 7 0 15 -7 19 -15z"/>
<path d="M8360 2136 c0 -25 5 -46 10 -46 6 0 10 18 10 39 0 22 -4 43 -10 46
-6 4 -10 -12 -10 -39z"/>
<path d="M8397 2173 c7 -5 17 -27 22 -48 l10 -40 -2 45 c-2 36 -6 45 -22 48
-13 2 -16 0 -8 -5z"/>
<path d="M8495 2170 c-4 -7 2 -9 19 -4 16 4 26 2 26 -4 0 -6 -10 -12 -22 -14
-17 -2 -23 -10 -23 -28 0 -22 5 -25 36 -26 34 -1 35 0 31 30 -3 17 -9 37 -14
44 -13 15 -44 16 -53 2z m45 -44 c0 -8 -5 -18 -11 -22 -14 -8 -33 11 -25 25
10 16 36 13 36 -3z"/>
<path d="M8587 2173 c-14 -14 -6 -34 18 -43 33 -13 33 -34 -1 -27 -16 3 -22 1
-16 -5 15 -15 46 -5 50 15 2 11 -6 20 -23 27 -30 11 -24 34 7 24 14 -4 18 -2
14 5 -8 12 -39 15 -49 4z"/>
<path d="M8756 2140 c23 -57 15 -68 -53 -73 l-58 -3 62 -2 c54 -2 64 1 73 19
20 36 39 99 31 99 -4 0 -13 -15 -18 -32 l-10 -33 -13 33 c-6 17 -16 32 -21 32
-5 0 -2 -18 7 -40z"/>
<path d="M9037 2174 c-11 -11 -8 -72 4 -79 5 -4 21 -4 35 -1 22 6 25 11 22 44
-3 31 -7 37 -28 40 -14 2 -29 0 -33 -4z m48 -39 c0 -23 -4 -30 -20 -30 -21 0
-31 25 -21 51 11 28 41 12 41 -21z"/>
<path d="M9120 2134 c0 -24 5 -44 10 -44 6 0 10 18 10 40 0 29 4 40 15 40 11
0 15 -12 16 -42 1 -24 3 -34 6 -23 2 11 6 30 9 43 8 39 32 26 37 -20 l4 -43
-1 45 -1 45 -52 1 -53 1 0 -43z"/>
<path d="M9250 2121 c0 -34 4 -61 10 -61 6 0 10 6 10 14 0 8 10 16 23 18 19 3
22 9 22 43 0 38 -2 40 -32 43 l-33 3 0 -60z m55 14 c0 -20 -6 -31 -17 -33 -15
-3 -18 4 -18 33 0 29 3 36 18 33 11 -2 17 -13 17 -33z"/>
<path d="M9340 2133 c0 -24 5 -43 10 -43 6 0 10 15 10 33 0 18 5 38 11 44 9 9
7 12 -10 10 -18 -1 -21 -7 -21 -44z"/>
<path d="M9395 2170 c-4 -7 2 -9 19 -4 16 4 26 2 26 -4 0 -6 -10 -12 -22 -14
-17 -2 -23 -10 -23 -28 0 -22 5 -25 36 -26 34 -1 35 0 31 30 -3 17 -9 37 -14
44 -13 15 -44 16 -53 2z m45 -44 c0 -8 -5 -18 -11 -22 -14 -8 -33 11 -25 25
10 16 36 13 36 -3z"/>
<path d="M9487 2173 c-14 -14 -6 -34 18 -43 33 -13 33 -34 -1 -27 -16 3 -22 1
-16 -5 15 -15 46 -5 50 15 2 11 -6 20 -23 27 -30 11 -24 34 7 24 14 -4 18 -2
14 5 -8 12 -39 15 -49 4z"/>
<path d="M8843 2063 c15 -2 37 -2 50 0 12 2 0 4 -28 4 -27 0 -38 -2 -22 -4z"/>
<path d="M2670 2966 c0 -51 4 -86 10 -86 6 0 10 30 11 68 l0 67 26 -67 c14
-38 29 -68 33 -68 5 0 17 24 28 53 11 28 22 59 25 67 3 8 6 -15 6 -52 1 -55
-2 -68 -14 -68 -9 0 -18 -7 -21 -15 -4 -8 -12 -15 -19 -15 -7 0 -15 7 -19 15
-7 19 -32 20 -43 1 -4 -7 -15 -16 -23 -19 -12 -4 -11 -6 3 -6 10 -1 20 6 23
14 4 8 12 15 19 15 7 0 15 -7 19 -15 3 -8 12 -15 21 -15 9 0 18 7 21 15 4 8
12 15 19 15 7 0 15 -7 19 -15 3 -8 13 -14 23 -14 16 1 16 2 1 6 -18 5 -33 33
-18 33 6 0 10 37 10 85 0 108 -17 114 -53 18 l-25 -68 -12 30 c-7 17 -18 46
-25 65 -6 19 -19 36 -28 38 -15 3 -17 -8 -17 -82z"/>
<path d="M3370 2735 c0 -101 18 -115 22 -17 l3 67 40 -67 c22 -37 46 -68 53
-68 9 0 12 24 12 85 0 100 -18 115 -22 19 l-3 -66 -38 66 c-54 92 -67 88 -67
-19z"/>
<path d="M3810 2396 c0 -51 4 -86 10 -86 6 0 10 30 11 68 l0 67 26 -67 c14
-38 29 -68 33 -68 5 0 17 24 28 53 11 28 22 59 25 67 3 8 6 -15 6 -52 1 -55
-2 -68 -14 -68 -9 0 -18 -7 -21 -15 -4 -8 -12 -15 -19 -15 -7 0 -15 7 -19 15
-7 19 -32 20 -43 1 -4 -7 -15 -16 -23 -19 -12 -4 -11 -6 3 -6 10 -1 20 6 23
14 4 8 12 15 19 15 7 0 15 -7 19 -15 3 -8 12 -15 21 -15 9 0 18 7 21 15 4 8
12 15 19 15 7 0 15 -7 19 -15 3 -8 13 -14 23 -14 16 1 16 2 1 6 -18 5 -33 33
-18 33 6 0 10 37 10 85 0 108 -17 114 -53 18 l-25 -68 -12 30 c-7 17 -18 46
-25 65 -6 19 -19 36 -28 38 -15 3 -17 -8 -17 -82z"/>
<path d="M7560 2285 c0 -101 18 -115 22 -17 l3 67 40 -67 c22 -37 46 -68 53
-68 9 0 12 24 12 85 0 100 -18 115 -22 19 l-3 -66 -38 66 c-54 92 -67 88 -67
-19z"/>
<path d="M7125 1483 c-403 -25 -686 -101 -732 -197 -14 -30 -14 -36 1 -64 83
-160 811 -249 1362 -167 238 36 402 98 438 166 19 36 19 36 0 70 -39 67 -206
129 -439 164 -191 28 -449 40 -630 28z m545 -28 c284 -33 455 -89 513 -167 17
-23 19 -32 9 -52 -54 -118 -423 -200 -902 -199 -432 0 -788 71 -875 174 -34
41 -32 56 14 100 140 132 743 203 1241 144z"/>
<path d="M7584 1310 c-12 -12 -3 -92 11 -97 6 -2 9 18 8 48 -1 56 -4 64 -19
49z"/>
<path d="M6840 1256 c0 -25 5 -46 10 -46 6 0 10 18 10 39 0 22 -4 43 -10 46
-6 4 -10 -12 -10 -39z"/>
<path d="M6877 1294 c7 -3 15 -21 19 -41 7 -39 -4 -52 -46 -54 l-25 -1 25 -8
c19 -6 21 -8 6 -9 -11 -1 -16 -4 -13 -8 4 -3 18 0 32 7 20 11 27 11 40 0 13
-11 20 -11 40 0 20 11 27 11 40 0 13 -11 20 -11 40 0 20 10 27 11 40 0 8 -7
22 -9 32 -5 10 4 160 10 333 12 173 3 317 6 319 9 2 2 -66 4 -152 4 l-157 0 0
48 c0 47 0 48 -32 47 -32 0 -33 -2 -33 -40 0 -35 3 -40 23 -39 12 0 22 -3 22
-8 0 -4 -67 -8 -149 -8 l-150 0 -3 48 -3 47 -52 1 -53 1 0 -43 c0 -24 5 -44
10 -44 6 0 10 18 10 40 0 29 4 40 15 40 11 0 15 -11 15 -39 0 -36 -3 -40 -30
-46 -38 -8 -89 13 -95 40 -2 11 -6 29 -8 40 -3 11 -5 1 -6 -22 -1 -30 4 -45
17 -52 15 -9 13 -10 -10 -11 -25 0 -27 3 -30 47 -2 39 -7 48 -23 50 -11 2 -15
0 -8 -3z m243 -49 c0 -41 -2 -45 -24 -45 -18 0 -23 5 -21 18 13 62 17 72 30
72 11 0 15 -12 15 -45z m305 9 c0 -19 -5 -29 -15 -29 -16 0 -25 28 -16 51 10
25 31 10 31 -22z m-478 -70 c-3 -3 -12 -4 -19 -1 -8 3 -5 6 6 6 11 1 17 -2 13
-5z m80 0 c-3 -3 -12 -4 -19 -1 -8 3 -5 6 6 6 11 1 17 -2 13 -5z m80 0 c-3 -3
-12 -4 -19 -1 -8 3 -5 6 6 6 11 1 17 -2 13 -5z"/>
<path d="M6980 1261 c0 -22 5 -43 10 -46 6 -4 10 12 10 39 0 25 -4 46 -10 46
-5 0 -10 -18 -10 -39z"/>
<path d="M7240 1253 c0 -24 5 -43 10 -43 6 0 10 15 10 33 0 18 5 38 11 44 9 9
7 12 -10 10 -18 -1 -21 -7 -21 -44z"/>
<path d="M7303 1293 c-7 -2 -13 -20 -13 -39 0 -28 4 -35 26 -40 14 -4 30 -2
36 4 8 8 3 11 -17 9 -15 -1 -30 4 -32 11 -3 8 6 12 26 12 32 0 41 16 19 38
-13 13 -24 14 -45 5z m41 -18 c4 -11 -1 -15 -19 -15 -18 0 -23 4 -19 15 4 8
12 15 19 15 7 0 15 -7 19 -15z"/>
<path d="M7470 1255 c0 -25 5 -45 10 -45 6 0 10 20 10 45 0 25 -4 45 -10 45
-5 0 -10 -20 -10 -45z"/>
<path d="M7507 1293 c-14 -14 -6 -34 18 -43 33 -13 33 -34 -1 -27 -16 3 -22 1
-16 -5 15 -15 46 -5 50 15 2 11 -6 20 -23 27 -30 11 -24 34 7 24 14 -4 18 -2
14 5 -8 12 -39 15 -49 4z"/>
<path d="M7630 1253 c0 -24 5 -43 10 -43 6 0 10 15 10 33 0 18 5 38 11 44 9 9
7 12 -10 10 -18 -1 -21 -7 -21 -44z"/>
<path d="M7687 1294 c-11 -11 -8 -72 4 -79 5 -4 21 -4 35 -1 22 6 25 11 22 44
-3 31 -7 37 -28 40 -14 2 -29 0 -33 -4z m48 -39 c0 -23 -4 -30 -20 -30 -21 0
-31 25 -21 51 11 28 41 12 41 -21z"/>
<path d="M9215 1480 c-322 -24 -583 -92 -650 -171 -110 -132 175 -246 698
-280 463 -30 980 55 1076 177 88 112 -122 214 -544 264 -125 15 -436 20 -580
10z m448 -11 c276 -18 493 -62 603 -123 107 -59 111 -115 14 -174 -143 -85
-454 -136 -835 -136 -418 1 -771 69 -870 168 -159 159 452 308 1088 265z"/>
<path d="M9209 1273 c-1 -34 -4 -46 -6 -28 -3 17 -9 36 -15 43 -13 15 -44 16
-53 2 -4 -7 2 -9 19 -4 16 4 26 2 26 -5 0 -6 -9 -11 -20 -11 -25 0 -37 -26
-23 -49 12 -20 6 -41 -13 -41 -8 0 -14 6 -15 13 0 6 -1 32 -2 57 -2 36 -6 45
-22 48 -14 2 -16 0 -7 -6 7 -5 15 -25 19 -45 5 -30 3 -37 -11 -37 -9 0 -19 -7
-22 -15 -5 -12 -33 -22 -35 -12 0 1 -3 22 -6 47 -3 25 -10 51 -15 58 -13 15
-44 16 -53 2 -4 -7 2 -9 19 -4 16 4 26 2 26 -4 0 -6 -10 -12 -22 -14 -31 -4
-38 -47 -9 -55 23 -6 18 -30 -7 -36 -15 -4 -15 -5 1 -6 10 0 20 6 23 14 4 8
12 15 19 15 7 0 15 -7 19 -15 3 -8 12 -15 21 -15 9 0 18 7 21 15 4 8 12 15 19
15 7 0 15 -7 19 -15 3 -8 12 -15 21 -15 9 0 18 7 21 15 4 8 12 15 19 15 7 0
15 -7 19 -15 3 -8 12 -15 21 -15 9 0 18 7 21 15 4 8 12 15 19 15 7 0 15 -7 19
-15 3 -8 12 -15 21 -15 9 0 18 7 21 15 4 8 12 15 19 15 7 0 15 -7 19 -15 3 -8
12 -15 21 -15 9 0 18 7 21 15 8 19 23 19 38 1 9 -11 25 -13 76 -7 l65 7 -53 5
c-28 2 -52 1 -52 -3 0 -14 -28 -8 -33 6 -3 8 2 16 14 19 27 7 24 36 -7 47 -30
12 -22 34 9 24 17 -5 19 -3 11 6 -16 16 -48 9 -52 -13 -2 -11 6 -20 22 -27 34
-13 34 -34 1 -27 -14 2 -24 2 -21 0 6 -6 -31 -43 -43 -43 -12 0 -25 31 -22 53
1 10 -8 21 -24 27 -31 12 -23 34 8 24 17 -5 19 -3 11 6 -16 16 -48 9 -52 -13
-2 -11 6 -20 22 -27 35 -13 34 -34 -1 -27 -23 4 -25 3 -12 -6 18 -14 14 -37
-7 -37 -16 0 -16 5 -14 73 1 28 -3 47 -9 47 -6 0 -11 -20 -11 -45 0 -25 -4
-45 -10 -45 -6 0 -10 27 -10 60 0 77 -20 79 -21 3z m-212 -33 c-3 -10 0 -21 7
-24 7 -3 7 -5 0 -5 -18 -2 -47 26 -40 37 12 21 39 14 33 -8z m180 0 c-4 -17 0
-22 23 -27 19 -3 27 -10 23 -19 -8 -20 -17 -17 -53 16 -31 29 -33 50 -3 50 11
0 14 -6 10 -20z"/>
<path d="M9834 1310 c-12 -12 -3 -92 11 -97 6 -2 9 18 8 48 -1 56 -4 64 -19
49z"/>
<path d="M9040 1256 c0 -25 5 -46 10 -46 6 0 10 18 10 39 0 22 -4 43 -10 46
-6 4 -10 -12 -10 -39z"/>
<path d="M9360 1255 c0 -25 5 -45 10 -45 6 0 10 20 10 45 0 25 -4 45 -10 45
-5 0 -10 -20 -10 -45z"/>
<path d="M9577 1255 c8 -25 19 -45 23 -45 4 0 15 20 23 45 9 25 12 45 7 45 -5
0 -11 -13 -15 -30 -4 -16 -10 -30 -15 -30 -5 0 -11 14 -15 30 -4 17 -10 30
-15 30 -5 0 -2 -20 7 -45z"/>
<path d="M9663 1293 c-7 -2 -13 -20 -13 -39 0 -28 4 -35 26 -40 14 -4 30 -2
36 4 8 8 3 11 -17 9 -15 -1 -30 4 -32 11 -3 8 6 12 26 12 32 0 41 16 19 38
-13 13 -24 14 -45 5z m41 -18 c4 -11 -1 -15 -19 -15 -18 0 -23 4 -19 15 4 8
12 15 19 15 7 0 15 -7 19 -15z"/>
<path d="M9740 1256 c0 -25 5 -46 10 -46 6 0 10 18 10 39 0 22 -4 43 -10 46
-6 4 -10 -12 -10 -39z"/>
<path d="M9777 1293 c7 -5 17 -27 22 -48 l10 -40 -2 45 c-2 36 -6 45 -22 48
-13 2 -16 0 -8 -5z"/>
<path d="M9875 1290 c-4 -7 2 -9 19 -4 16 4 26 2 26 -4 0 -6 -10 -12 -22 -14
-17 -2 -23 -10 -23 -28 0 -22 5 -25 36 -26 34 -1 35 0 31 30 -3 17 -9 37 -14
44 -13 15 -44 16 -53 2z m45 -44 c0 -8 -5 -18 -11 -22 -14 -8 -33 11 -25 25
10 16 36 13 36 -3z"/>
<path d="M4190 1023 c-350 -20 -696 -84 -808 -149 -148 -87 -10 -183 349 -243
261 -44 432 -55 844 -55 412 0 585 12 844 55 426 71 530 190 249 283 -145 48
-385 86 -668 106 -130 9 -672 11 -810 3z m810 -13 c428 -30 753 -104 805 -184
16 -24 16 -28 2 -50 -47 -71 -292 -134 -677 -172 -243 -25 -872 -25 -1110 -1
-394 41 -642 105 -681 178 -34 64 124 137 396 183 93 16 345 43 450 49 147 8
683 6 815 -3z"/>
<path d="M3910 856 c0 -8 -10 -16 -22 -18 -19 -2 -24 -10 -26 -41 -3 -32 0
-39 17 -44 23 -6 18 -30 -7 -36 -15 -4 -15 -5 1 -6 10 0 20 6 23 14 4 8 12 15
19 15 7 0 15 -7 19 -15 3 -8 12 -15 21 -15 9 0 18 7 21 15 4 8 12 15 19 15 7
0 15 -7 19 -15 3 -8 12 -15 21 -15 9 0 18 7 21 15 4 8 12 15 19 15 7 0 15 -7
19 -15 3 -8 12 -15 21 -15 9 0 18 7 21 15 4 8 12 15 19 15 7 0 15 -7 19 -15 3
-8 12 -15 21 -15 9 0 18 7 21 15 4 8 12 15 19 15 7 0 15 -7 19 -15 3 -8 12
-15 21 -15 9 0 18 7 21 15 4 8 12 15 19 15 7 0 15 -7 19 -15 3 -8 12 -15 21
-15 9 0 18 7 21 15 4 8 12 15 19 15 7 0 15 -7 19 -15 8 -21 28 -19 49 6 26 29
20 103 -8 107 -13 2 -16 0 -8 -5 6 -5 15 -21 18 -36 13 -48 -32 -105 -49 -62
-3 8 -1 15 4 15 13 0 13 77 0 85 -6 4 -10 -12 -10 -39 0 -35 -4 -46 -15 -46
-9 0 -18 -7 -21 -15 -8 -19 -30 -20 -37 -1 -4 9 4 16 24 20 28 5 30 9 27 43
-3 35 -6 38 -33 38 -29 0 -30 -2 -30 -43 0 -23 -3 -42 -7 -42 -5 0 -8 20 -8
45 0 25 -5 45 -11 45 -6 0 -10 -19 -9 -47 2 -68 2 -73 -14 -73 -17 0 -29 27
-16 35 6 4 10 11 10 17 0 6 -6 5 -16 -3 -13 -10 -17 -10 -25 2 -22 35 -1 71
28 47 14 -11 15 -11 11 2 -2 8 -16 15 -29 15 -22 0 -24 -4 -25 -45 -2 -68 -3
-70 -18 -70 -18 0 -27 25 -19 48 6 15 5 15 -11 3 -15 -13 -19 -13 -27 0 -22
35 -1 71 28 47 14 -11 15 -11 11 2 -2 8 -16 15 -29 15 -20 0 -25 -6 -27 -34
-2 -18 1 -38 6 -43 13 -13 4 -38 -13 -38 -18 0 -26 25 -13 38 8 8 3 11 -17 9
-15 -1 -30 4 -32 11 -3 8 6 12 26 12 34 0 41 19 16 40 -25 21 -55 3 -55 -35 0
-18 5 -35 11 -37 13 -4 1 -38 -13 -38 -31 0 -51 83 -27 107 9 9 7 12 -10 10
-18 -1 -21 -7 -21 -43 0 -51 -8 -74 -25 -74 -19 0 -25 24 -25 91 0 33 -4 59
-10 59 -5 0 -10 -6 -10 -14z m-5 -62 c0 -19 -5 -29 -15 -29 -16 0 -25 28 -16
51 10 25 31 10 31 -22z m189 21 c4 -11 -1 -15 -19 -15 -18 0 -23 4 -19 15 4 8
12 15 19 15 7 0 15 -7 19 -15z m281 -20 c0 -23 -4 -30 -20 -30 -21 0 -31 25
-21 51 11 28 41 12 41 -21z"/>
<path d="M5120 856 c0 -8 -10 -16 -22 -18 -20 -3 -23 -9 -23 -43 0 -38 1 -40
33 -41 l32 -1 0 59 c0 32 -4 58 -10 58 -5 0 -10 -6 -10 -14z m-5 -62 c0 -19
-5 -29 -15 -29 -16 0 -25 28 -16 51 10 25 31 10 31 -22z"/>
<path d="M3950 795 c0 -25 5 -45 10 -45 6 0 10 20 10 45 0 25 -4 45 -10 45 -5
0 -10 -20 -10 -45z"/>
<path d="M4590 781 c0 -34 4 -61 10 -61 6 0 10 6 10 14 0 8 10 16 23 18 19 3
22 9 22 43 0 38 -2 40 -32 43 l-33 3 0 -60z m55 14 c0 -20 -6 -31 -17 -33 -15
-3 -18 4 -18 33 0 29 3 36 18 33 11 -2 17 -13 17 -33z"/>
<path d="M4670 793 c0 -24 5 -43 10 -43 6 0 10 15 10 33 0 18 5 38 11 44 9 9
7 12 -10 10 -18 -1 -21 -7 -21 -44z"/>
<path d="M4737 834 c-11 -11 -8 -72 4 -79 5 -4 21 -4 35 -1 22 6 25 11 22 44
-3 31 -7 37 -28 40 -14 2 -29 0 -33 -4z m48 -39 c0 -23 -4 -30 -20 -30 -21 0
-31 25 -21 51 11 28 41 12 41 -21z"/>
<path d="M4827 795 c8 -25 19 -45 23 -45 4 0 15 20 23 45 9 25 12 45 7 45 -5
0 -11 -13 -15 -30 -4 -16 -10 -30 -15 -30 -5 0 -11 14 -15 30 -4 17 -10 30
-15 30 -5 0 -2 -20 7 -45z"/>
<path d="M4913 833 c-7 -2 -13 -20 -13 -39 0 -28 4 -35 26 -40 14 -4 30 -2 36
4 8 8 3 11 -17 9 -15 -1 -30 4 -32 11 -3 8 6 12 26 12 32 0 41 16 19 38 -13
13 -24 14 -45 5z m41 -18 c4 -11 -1 -15 -19 -15 -18 0 -23 4 -19 15 4 8 12 15
19 15 7 0 15 -7 19 -15z"/>
<path d="M5003 833 c-7 -2 -13 -20 -13 -39 0 -28 4 -35 26 -40 14 -4 30 -2 36
4 8 8 3 11 -17 9 -15 -1 -30 4 -32 11 -3 8 6 12 26 12 32 0 41 16 19 38 -13
13 -24 14 -45 5z m41 -18 c4 -11 -1 -15 -19 -15 -18 0 -23 4 -19 15 4 8 12 15
19 15 7 0 15 -7 19 -15z"/>
<path d="M5167 834 c-11 -11 -8 -72 4 -79 5 -4 21 -4 35 -1 22 6 25 11 22 44
-3 31 -7 37 -28 40 -14 2 -29 0 -33 -4z m48 -39 c0 -23 -4 -30 -20 -30 -21 0
-31 25 -21 51 11 28 41 12 41 -21z"/>
<path d="M5250 793 c0 -24 5 -43 10 -43 6 0 10 15 10 33 0 18 5 38 11 44 9 9
7 12 -10 10 -18 -1 -21 -7 -21 -44z"/>
<path d="M4513 723 c15 -2 37 -2 50 0 12 2 0 4 -28 4 -27 0 -38 -2 -22 -4z"/>
</g>
</svg>
